M48
; DRILL file {KiCad 6.0.4-6f826c9f35~116~ubuntu20.04.1} date Sat 06 Jan 2024 06:53:32 PM
; FORMAT={-:-/ absolute / metric / decimal}
; #@! TF.CreationDate,2024-01-06T18:53:32+01:00
; #@! TF.GenerationSoftware,Kicad,Pcbnew,6.0.4-6f826c9f35~116~ubuntu20.04.1
; #@! TF.FileFunction,Plated,1,2,PTH
FMAT,2
METRIC
; #@! TA.AperFunction,Plated,PTH,ViaDrill
T1C0.400
; #@! TA.AperFunction,Plated,PTH,ComponentDrill
T2C0.600
; #@! TA.AperFunction,Plated,PTH,ComponentDrill
T3C0.800
; #@! TA.AperFunction,Plated,PTH,ComponentDrill
T4C1.000
; #@! TA.AperFunction,Plated,PTH,ComponentDrill
T5C1.500
%
G90
G05
T1
X102.1Y-52.1
X103.3Y-81.3
X103.6Y-62.4
X107.1Y-81.1
X108.3Y-59.0
X111.8Y-72.3
X112.0Y-67.4
X112.1Y-52.4
X114.0Y-55.6
X114.9Y-81.6
X116.8Y-72.0
X117.8Y-52.4
X119.7Y-79.4
X120.0Y-90.9
X122.4Y-55.9
X125.3Y-75.7
X126.9Y-72.3
X127.4Y-69.7
X127.6Y-53.8
X128.3Y-75.8
X128.5Y-91.0
X129.5Y-67.8
X129.9Y-86.0
X130.4Y-71.4
X132.4Y-57.1
X132.6Y-65.9
X134.1Y-73.7
X135.3Y-74.5
X136.1Y-69.3
X137.7Y-90.4
X137.8Y-81.2
X138.3Y-54.3
X140.7Y-75.8
X141.1Y-85.9
X142.3Y-77.9
X143.0Y-64.3
X144.1Y-75.9
X145.0Y-77.9
X146.3Y-68.4
X146.5Y-54.3
X147.3Y-92.9
X147.4Y-58.6
X147.5Y-90.0
X151.4Y-61.9
X152.3Y-52.6
X157.3Y-77.8
X158.0Y-68.8
X159.0Y-53.9
X161.1Y-92.1
X163.6Y-80.3
X170.1Y-68.5
X170.1Y-74.0
X175.4Y-90.2
X175.8Y-78.8
X177.8Y-52.3
X178.0Y-59.0
X178.0Y-62.1
X178.0Y-72.6
X178.0Y-91.9
T2
X103.6Y-55.4
X104.0Y-89.4
X105.6Y-55.4
X106.0Y-89.4
X174.6Y-55.1
X176.6Y-55.1
T3
X162.2Y-56.0
X162.2Y-58.54
X162.2Y-61.08
X162.2Y-63.62
X169.82Y-56.0
X169.82Y-58.54
X169.82Y-61.08
X169.82Y-63.62
T4
X110.4Y-88.0
X110.4Y-91.7
X110.5Y-53.6
X110.6Y-57.3
X114.0Y-88.1
X114.0Y-91.7
X169.5Y-78.7
X169.5Y-82.8
X169.5Y-87.0
X169.5Y-91.0
X173.6Y-81.7
X173.6Y-85.8
X177.6Y-85.9
X177.7Y-81.7
T5
X101.78Y-69.96
X101.78Y-75.04
X104.32Y-72.5
X106.86Y-69.96
X106.86Y-75.04
X173.06Y-69.96
X173.06Y-75.04
X175.6Y-72.5
X178.14Y-69.96
X178.14Y-75.04
T0
M30
