%FSLAX45Y45*%
G04 Gerber Fmt 4.5, Leading zero omitted, Abs format (unit mm)*
G04 Created by KiCad (PCBNEW 6.0.4-6f826c9f35~116~ubuntu20.04.1) date 2024-01-06 18:53:34*
%MOMM*%
%LPD*%
G01*
G04 APERTURE LIST*
%TA.AperFunction,Profile*%
%ADD10C,0.100000*%
%TD*%
%ADD11C,0.200000*%
G04 APERTURE END LIST*
D10*
X10000000Y-5000000D02*
X18000000Y-5000000D01*
X18000000Y-5000000D02*
X18000000Y-9500000D01*
X18000000Y-9500000D02*
X10000000Y-9500000D01*
X10000000Y-9500000D02*
X10000000Y-5000000D01*
D11*
X10252619Y-9815476D02*
X10252619Y-9615476D01*
X10300238Y-9615476D01*
X10328810Y-9625000D01*
X10347857Y-9644048D01*
X10357381Y-9663095D01*
X10366905Y-9701190D01*
X10366905Y-9729762D01*
X10357381Y-9767857D01*
X10347857Y-9786905D01*
X10328810Y-9805952D01*
X10300238Y-9815476D01*
X10252619Y-9815476D01*
X10452619Y-9815476D02*
X10452619Y-9682143D01*
X10452619Y-9720238D02*
X10462143Y-9701190D01*
X10471667Y-9691667D01*
X10490714Y-9682143D01*
X10509762Y-9682143D01*
X10576429Y-9815476D02*
X10576429Y-9682143D01*
X10576429Y-9615476D02*
X10566905Y-9625000D01*
X10576429Y-9634524D01*
X10585952Y-9625000D01*
X10576429Y-9615476D01*
X10576429Y-9634524D01*
X10700238Y-9815476D02*
X10681190Y-9805952D01*
X10671667Y-9786905D01*
X10671667Y-9615476D01*
X10805000Y-9815476D02*
X10785952Y-9805952D01*
X10776429Y-9786905D01*
X10776429Y-9615476D01*
X11033571Y-9815476D02*
X11033571Y-9615476D01*
X11100238Y-9758333D01*
X11166905Y-9615476D01*
X11166905Y-9815476D01*
X11347857Y-9815476D02*
X11347857Y-9710714D01*
X11338333Y-9691667D01*
X11319286Y-9682143D01*
X11281190Y-9682143D01*
X11262143Y-9691667D01*
X11347857Y-9805952D02*
X11328809Y-9815476D01*
X11281190Y-9815476D01*
X11262143Y-9805952D01*
X11252619Y-9786905D01*
X11252619Y-9767857D01*
X11262143Y-9748810D01*
X11281190Y-9739286D01*
X11328809Y-9739286D01*
X11347857Y-9729762D01*
X11443095Y-9682143D02*
X11443095Y-9882143D01*
X11443095Y-9691667D02*
X11462143Y-9682143D01*
X11500238Y-9682143D01*
X11519286Y-9691667D01*
X11528809Y-9701190D01*
X11538333Y-9720238D01*
X11538333Y-9777381D01*
X11528809Y-9796429D01*
X11519286Y-9805952D01*
X11500238Y-9815476D01*
X11462143Y-9815476D01*
X11443095Y-9805952D01*
X11624048Y-9796429D02*
X11633571Y-9805952D01*
X11624048Y-9815476D01*
X11614524Y-9805952D01*
X11624048Y-9796429D01*
X11624048Y-9815476D01*
X11624048Y-9691667D02*
X11633571Y-9701190D01*
X11624048Y-9710714D01*
X11614524Y-9701190D01*
X11624048Y-9691667D01*
X11624048Y-9710714D01*
M02*
