%TF.GenerationSoftware,KiCad,Pcbnew,6.0.4-6f826c9f35~116~ubuntu20.04.1*%
%TF.CreationDate,2024-01-06T18:53:29+01:00*%
%TF.ProjectId,instrument_lowpass,696e7374-7275-46d6-956e-745f6c6f7770,rev?*%
%TF.SameCoordinates,Original*%
%TF.FileFunction,Paste,Top*%
%TF.FilePolarity,Positive*%
%FSLAX46Y46*%
G04 Gerber Fmt 4.6, Leading zero omitted, Abs format (unit mm)*
G04 Created by KiCad (PCBNEW 6.0.4-6f826c9f35~116~ubuntu20.04.1) date 2024-01-06 18:53:29*
%MOMM*%
%LPD*%
G01*
G04 APERTURE LIST*
G04 Aperture macros list*
%AMRoundRect*
0 Rectangle with rounded corners*
0 $1 Rounding radius*
0 $2 $3 $4 $5 $6 $7 $8 $9 X,Y pos of 4 corners*
0 Add a 4 corners polygon primitive as box body*
4,1,4,$2,$3,$4,$5,$6,$7,$8,$9,$2,$3,0*
0 Add four circle primitives for the rounded corners*
1,1,$1+$1,$2,$3*
1,1,$1+$1,$4,$5*
1,1,$1+$1,$6,$7*
1,1,$1+$1,$8,$9*
0 Add four rect primitives between the rounded corners*
20,1,$1+$1,$2,$3,$4,$5,0*
20,1,$1+$1,$4,$5,$6,$7,0*
20,1,$1+$1,$6,$7,$8,$9,0*
20,1,$1+$1,$8,$9,$2,$3,0*%
G04 Aperture macros list end*
%ADD10RoundRect,0.250000X-0.650000X-3.050000X0.650000X-3.050000X0.650000X3.050000X-0.650000X3.050000X0*%
%ADD11RoundRect,0.250000X0.450000X-0.350000X0.450000X0.350000X-0.450000X0.350000X-0.450000X-0.350000X0*%
%ADD12RoundRect,0.250000X-0.337500X-0.475000X0.337500X-0.475000X0.337500X0.475000X-0.337500X0.475000X0*%
%ADD13RoundRect,0.250000X-0.450000X0.350000X-0.450000X-0.350000X0.450000X-0.350000X0.450000X0.350000X0*%
%ADD14RoundRect,0.250000X-0.537500X-1.450000X0.537500X-1.450000X0.537500X1.450000X-0.537500X1.450000X0*%
%ADD15RoundRect,0.250000X-1.450000X0.537500X-1.450000X-0.537500X1.450000X-0.537500X1.450000X0.537500X0*%
%ADD16RoundRect,0.250000X0.350000X0.450000X-0.350000X0.450000X-0.350000X-0.450000X0.350000X-0.450000X0*%
%ADD17R,1.400000X0.450000*%
%ADD18RoundRect,0.250000X-0.475000X0.337500X-0.475000X-0.337500X0.475000X-0.337500X0.475000X0.337500X0*%
%ADD19RoundRect,0.250000X-0.350000X-0.450000X0.350000X-0.450000X0.350000X0.450000X-0.350000X0.450000X0*%
G04 APERTURE END LIST*
D10*
%TO.C,C6*%
X112075000Y-82000000D03*
X117325000Y-82000000D03*
%TD*%
D11*
%TO.C,R6*%
X144100000Y-74000000D03*
X144100000Y-72000000D03*
%TD*%
D10*
%TO.C,C2*%
X112075000Y-63000000D03*
X117325000Y-63000000D03*
%TD*%
D12*
%TO.C,C3*%
X121262500Y-67300000D03*
X123337500Y-67300000D03*
%TD*%
D13*
%TO.C,R1*%
X130400000Y-64200000D03*
X130400000Y-62200000D03*
%TD*%
D14*
%TO.C,C12*%
X121862500Y-62200000D03*
X126137500Y-62200000D03*
%TD*%
D15*
%TO.C,C10*%
X154500000Y-56262500D03*
X154500000Y-60537500D03*
%TD*%
D13*
%TO.C,R4*%
X134500000Y-82800000D03*
X134500000Y-80800000D03*
%TD*%
%TO.C,R8*%
X158800000Y-58200000D03*
X158800000Y-56200000D03*
%TD*%
D16*
%TO.C,R9*%
X141600000Y-56300000D03*
X139600000Y-56300000D03*
%TD*%
D13*
%TO.C,R11*%
X174400000Y-59600000D03*
X174400000Y-61600000D03*
%TD*%
D14*
%TO.C,C13*%
X125800000Y-83000000D03*
X121525000Y-83000000D03*
%TD*%
D17*
%TO.C,U2*%
X147600000Y-72025000D03*
X147600000Y-72675000D03*
X147600000Y-73325000D03*
X147600000Y-73975000D03*
X152000000Y-73975000D03*
X152000000Y-73325000D03*
X152000000Y-72675000D03*
X152000000Y-72025000D03*
%TD*%
D18*
%TO.C,C11*%
X149500000Y-58237500D03*
X149500000Y-56162500D03*
%TD*%
D11*
%TO.C,R5*%
X140600000Y-72000000D03*
X140600000Y-74000000D03*
%TD*%
D19*
%TO.C,R7*%
X144400000Y-56300000D03*
X146400000Y-56300000D03*
%TD*%
D13*
%TO.C,R3*%
X134300000Y-64200000D03*
X134300000Y-62200000D03*
%TD*%
%TO.C,R2*%
X130500000Y-82800000D03*
X130500000Y-80800000D03*
%TD*%
D12*
%TO.C,C4*%
X121262500Y-70800000D03*
X123337500Y-70800000D03*
%TD*%
D16*
%TO.C,R12*%
X175700000Y-65000000D03*
X173700000Y-65000000D03*
%TD*%
D13*
%TO.C,R10*%
X165900000Y-68500000D03*
X165900000Y-70500000D03*
%TD*%
D12*
%TO.C,C8*%
X121300000Y-74000000D03*
X123375000Y-74000000D03*
%TD*%
%TO.C,C7*%
X121300000Y-77100000D03*
X123375000Y-77100000D03*
%TD*%
M02*
