%TF.GenerationSoftware,KiCad,Pcbnew,6.0.4-6f826c9f35~116~ubuntu20.04.1*%
%TF.CreationDate,2024-01-06T18:53:29+01:00*%
%TF.ProjectId,instrument_lowpass,696e7374-7275-46d6-956e-745f6c6f7770,rev?*%
%TF.SameCoordinates,Original*%
%TF.FileFunction,Copper,L2,Bot*%
%TF.FilePolarity,Positive*%
%FSLAX46Y46*%
G04 Gerber Fmt 4.6, Leading zero omitted, Abs format (unit mm)*
G04 Created by KiCad (PCBNEW 6.0.4-6f826c9f35~116~ubuntu20.04.1) date 2024-01-06 18:53:29*
%MOMM*%
%LPD*%
G01*
G04 APERTURE LIST*
%TA.AperFunction,ComponentPad*%
%ADD10C,2.000000*%
%TD*%
%TA.AperFunction,ComponentPad*%
%ADD11R,1.600000X1.600000*%
%TD*%
%TA.AperFunction,ComponentPad*%
%ADD12O,1.600000X1.600000*%
%TD*%
%TA.AperFunction,ComponentPad*%
%ADD13C,1.200000*%
%TD*%
%TA.AperFunction,ComponentPad*%
%ADD14C,2.250000*%
%TD*%
%TA.AperFunction,ViaPad*%
%ADD15C,0.800000*%
%TD*%
%TA.AperFunction,Conductor*%
%ADD16C,0.500000*%
%TD*%
%TA.AperFunction,Conductor*%
%ADD17C,0.300000*%
%TD*%
G04 APERTURE END LIST*
D10*
%TO.P,TP2,1,1*%
%TO.N,GND*%
X114000000Y-91700000D03*
%TD*%
%TO.P,TP1,1,1*%
%TO.N,Net-(R3-Pad2)*%
X114000000Y-88100000D03*
%TD*%
D11*
%TO.P,U1,1*%
%TO.N,Net-(R7-Pad1)*%
X162200000Y-56000000D03*
D12*
%TO.P,U1,2,-*%
%TO.N,Net-(C10-Pad2)*%
X162200000Y-58540000D03*
%TO.P,U1,3,+*%
%TO.N,GND*%
X162200000Y-61080000D03*
%TO.P,U1,4,V-*%
%TO.N,-9V*%
X162200000Y-63620000D03*
%TO.P,U1,5,+*%
%TO.N,Net-(R12-Pad2)*%
X169820000Y-63620000D03*
%TO.P,U1,6,-*%
%TO.N,Net-(R11-Pad2)*%
X169820000Y-61080000D03*
%TO.P,U1,7*%
%TO.N,Net-(R11-Pad1)*%
X169820000Y-58540000D03*
%TO.P,U1,8,V+*%
%TO.N,+9V*%
X169820000Y-56000000D03*
%TD*%
D10*
%TO.P,TP5,1,1*%
%TO.N,Net-(R5-Pad1)*%
X110600000Y-57300000D03*
%TD*%
%TO.P,TP14,1,1*%
%TO.N,GND*%
X177700000Y-81700000D03*
%TD*%
%TO.P,TP3,1,1*%
%TO.N,GND*%
X110400000Y-91700000D03*
%TD*%
D13*
%TO.P,C1,2*%
%TO.N,Net-(C1-Pad2)*%
X105600000Y-55400000D03*
%TO.P,C1,1*%
%TO.N,/input*%
X103600000Y-55400000D03*
%TD*%
D10*
%TO.P,TP9,1,1*%
%TO.N,-9V*%
X173600000Y-85800000D03*
%TD*%
D13*
%TO.P,C9,1*%
%TO.N,Net-(C10-Pad1)*%
X176600000Y-55100000D03*
%TO.P,C9,2*%
%TO.N,Net-(C10-Pad2)*%
X174600000Y-55100000D03*
%TD*%
%TO.P,C5,2*%
%TO.N,Net-(C13-Pad2)*%
X106000000Y-89400000D03*
%TO.P,C5,1*%
%TO.N,Net-(C13-Pad1)*%
X104000000Y-89400000D03*
%TD*%
D14*
%TO.P,J1,1,In*%
%TO.N,/input*%
X104320000Y-72500000D03*
%TO.P,J1,2,Ext*%
%TO.N,Net-(C13-Pad1)*%
X101780000Y-69960000D03*
X101780000Y-75040000D03*
X106860000Y-75040000D03*
X106860000Y-69960000D03*
%TD*%
D10*
%TO.P,TP8,1,1*%
%TO.N,+9V*%
X169500000Y-87000000D03*
%TD*%
D14*
%TO.P,J2,1,In*%
%TO.N,Net-(J2-Pad1)*%
X175600000Y-72500000D03*
%TO.P,J2,2,Ext*%
%TO.N,GND*%
X173060000Y-75040000D03*
X178140000Y-69960000D03*
X173060000Y-69960000D03*
X178140000Y-75040000D03*
%TD*%
D10*
%TO.P,TP12,1,1*%
%TO.N,GND*%
X177600000Y-85900000D03*
%TD*%
%TO.P,TP10,1,1*%
%TO.N,+9V*%
X173600000Y-81700000D03*
%TD*%
%TO.P,TP11,1,1*%
%TO.N,-9V*%
X169500000Y-78700000D03*
%TD*%
%TO.P,TP15,1,1*%
%TO.N,GND*%
X169500000Y-82800000D03*
%TD*%
%TO.P,TP4,1,1*%
%TO.N,Net-(R4-Pad1)*%
X110400000Y-88000000D03*
%TD*%
%TO.P,TP13,1,1*%
%TO.N,GND*%
X169500000Y-91000000D03*
%TD*%
%TO.P,TP7,1,1*%
%TO.N,Net-(R6-Pad1)*%
X110500000Y-53600000D03*
%TD*%
D15*
%TO.N,GND*%
X116800000Y-72000000D03*
X108300000Y-59000000D03*
X102100000Y-52100000D03*
X114000000Y-55600000D03*
X103600000Y-62400000D03*
X107100000Y-81100000D03*
X103300000Y-81300000D03*
X120000000Y-90900000D03*
X114900000Y-81600000D03*
X119700000Y-79400000D03*
X132600000Y-65900000D03*
X122400000Y-55900000D03*
X117800000Y-52400000D03*
X112100000Y-52400000D03*
X112000000Y-67400000D03*
X111800000Y-72300000D03*
X125300000Y-75700000D03*
X137700000Y-90400000D03*
X147500000Y-90000000D03*
X175800000Y-78800000D03*
X178000000Y-91900000D03*
X175400000Y-90200000D03*
X161100000Y-92100000D03*
X147300000Y-92900000D03*
X129900000Y-86000000D03*
X128500000Y-91000000D03*
X141100000Y-85900000D03*
X137800000Y-81200000D03*
X126900000Y-72300000D03*
X127400000Y-69700000D03*
X129500000Y-67800000D03*
X136100000Y-69300000D03*
X134100000Y-73700000D03*
X135300000Y-74500000D03*
X142300000Y-77900000D03*
X145000000Y-77900000D03*
X163600000Y-80300000D03*
X157300000Y-77800000D03*
X158000000Y-68800000D03*
X170100000Y-68500000D03*
X170100000Y-74000000D03*
X178000000Y-72600000D03*
X178000000Y-62100000D03*
X178000000Y-59000000D03*
X177800000Y-52300000D03*
X159000000Y-53900000D03*
X152300000Y-52600000D03*
X146500000Y-54300000D03*
X138300000Y-54300000D03*
X127600000Y-53800000D03*
X132400000Y-57100000D03*
X143000000Y-64300000D03*
X146300000Y-68400000D03*
%TO.N,Net-(R4-Pad1)*%
X128300000Y-75800000D03*
%TO.N,Net-(R3-Pad2)*%
X130400000Y-71400000D03*
%TO.N,Net-(R5-Pad1)*%
X140700000Y-75800000D03*
%TO.N,Net-(R6-Pad1)*%
X144100000Y-75900000D03*
%TO.N,Net-(C10-Pad2)*%
X147400000Y-58600000D03*
X151400000Y-61900000D03*
%TD*%
D16*
%TO.N,Net-(R3-Pad2)*%
X130400000Y-71400000D02*
X130400000Y-80600000D01*
X130400000Y-80600000D02*
X122900000Y-88100000D01*
X122900000Y-88100000D02*
X114000000Y-88100000D01*
%TO.N,Net-(R4-Pad1)*%
X119500000Y-84600000D02*
X113800000Y-84600000D01*
X113800000Y-84600000D02*
X110400000Y-88000000D01*
D17*
%TO.N,Net-(R6-Pad1)*%
X119900000Y-53700000D02*
X119800000Y-53600000D01*
X119800000Y-53600000D02*
X110500000Y-53600000D01*
D16*
%TO.N,Net-(R5-Pad1)*%
X120000000Y-57400000D02*
X119900000Y-57300000D01*
X119900000Y-57300000D02*
X110600000Y-57300000D01*
%TO.N,Net-(R4-Pad1)*%
X128300000Y-75800000D02*
X119500000Y-84600000D01*
%TO.N,Net-(R5-Pad1)*%
X140700000Y-75800000D02*
X122300000Y-57400000D01*
X122300000Y-57400000D02*
X120000000Y-57400000D01*
D17*
%TO.N,Net-(R6-Pad1)*%
X144100000Y-75900000D02*
X121900000Y-53700000D01*
X121900000Y-53700000D02*
X119900000Y-53700000D01*
D16*
%TO.N,+9V*%
X173600000Y-81700000D02*
X173600000Y-80500000D01*
X167800000Y-58020000D02*
X169820000Y-56000000D01*
X173600000Y-80500000D02*
X167800000Y-74700000D01*
X167800000Y-74700000D02*
X167800000Y-58020000D01*
%TO.N,-9V*%
X162200000Y-71200000D02*
X162200000Y-63620000D01*
X169500000Y-78700000D02*
X162200000Y-71400000D01*
X162200000Y-71400000D02*
X162200000Y-71200000D01*
X173600000Y-85800000D02*
X171800000Y-84000000D01*
X171800000Y-84000000D02*
X171800000Y-81000000D01*
X171800000Y-81000000D02*
X169500000Y-78700000D01*
%TO.N,Net-(C10-Pad2)*%
X151400000Y-61900000D02*
X150100000Y-61900000D01*
X150100000Y-61900000D02*
X147400000Y-59200000D01*
X147400000Y-59200000D02*
X147400000Y-58600000D01*
%TD*%
%TA.AperFunction,Conductor*%
%TO.N,GND*%
G36*
X179687621Y-50274502D02*
G01*
X179734114Y-50328158D01*
X179745500Y-50380500D01*
X179745500Y-69007807D01*
X179725498Y-69075928D01*
X179671842Y-69122421D01*
X179601568Y-69132525D01*
X179536988Y-69103031D01*
X179512067Y-69073642D01*
X179470660Y-69006072D01*
X179462599Y-69000810D01*
X179452393Y-69006817D01*
X178512022Y-69947188D01*
X178504408Y-69961132D01*
X178504539Y-69962965D01*
X178508790Y-69969580D01*
X179450934Y-70911724D01*
X179464471Y-70919116D01*
X179469740Y-70915430D01*
X179512067Y-70846358D01*
X179564715Y-70798727D01*
X179634756Y-70787120D01*
X179699954Y-70815223D01*
X179739608Y-70874113D01*
X179745500Y-70912193D01*
X179745500Y-74087807D01*
X179725498Y-74155928D01*
X179671842Y-74202421D01*
X179601568Y-74212525D01*
X179536988Y-74183031D01*
X179512067Y-74153642D01*
X179470660Y-74086072D01*
X179462599Y-74080810D01*
X179452393Y-74086817D01*
X178512022Y-75027188D01*
X178504408Y-75041132D01*
X178504539Y-75042965D01*
X178508790Y-75049580D01*
X179450934Y-75991724D01*
X179464471Y-75999116D01*
X179469740Y-75995430D01*
X179512067Y-75926358D01*
X179564715Y-75878727D01*
X179634756Y-75867120D01*
X179699954Y-75895223D01*
X179739608Y-75954113D01*
X179745500Y-75992193D01*
X179745500Y-94619500D01*
X179725498Y-94687621D01*
X179671842Y-94734114D01*
X179619500Y-94745500D01*
X100380500Y-94745500D01*
X100312379Y-94725498D01*
X100265886Y-94671842D01*
X100254500Y-94619500D01*
X100254500Y-92932670D01*
X109532160Y-92932670D01*
X109537887Y-92940320D01*
X109709042Y-93045205D01*
X109717837Y-93049687D01*
X109927988Y-93136734D01*
X109937373Y-93139783D01*
X110158554Y-93192885D01*
X110168301Y-93194428D01*
X110395070Y-93212275D01*
X110404930Y-93212275D01*
X110631699Y-93194428D01*
X110641446Y-93192885D01*
X110862627Y-93139783D01*
X110872012Y-93136734D01*
X111082163Y-93049687D01*
X111090958Y-93045205D01*
X111258445Y-92942568D01*
X111267400Y-92932670D01*
X113132160Y-92932670D01*
X113137887Y-92940320D01*
X113309042Y-93045205D01*
X113317837Y-93049687D01*
X113527988Y-93136734D01*
X113537373Y-93139783D01*
X113758554Y-93192885D01*
X113768301Y-93194428D01*
X113995070Y-93212275D01*
X114004930Y-93212275D01*
X114231699Y-93194428D01*
X114241446Y-93192885D01*
X114462627Y-93139783D01*
X114472012Y-93136734D01*
X114682163Y-93049687D01*
X114690958Y-93045205D01*
X114858445Y-92942568D01*
X114867907Y-92932110D01*
X114864124Y-92923334D01*
X114012812Y-92072022D01*
X113998868Y-92064408D01*
X113997035Y-92064539D01*
X113990420Y-92068790D01*
X113138920Y-92920290D01*
X113132160Y-92932670D01*
X111267400Y-92932670D01*
X111267907Y-92932110D01*
X111264124Y-92923334D01*
X110412812Y-92072022D01*
X110398868Y-92064408D01*
X110397035Y-92064539D01*
X110390420Y-92068790D01*
X109538920Y-92920290D01*
X109532160Y-92932670D01*
X100254500Y-92932670D01*
X100254500Y-91704930D01*
X108887725Y-91704930D01*
X108905572Y-91931699D01*
X108907115Y-91941446D01*
X108960217Y-92162627D01*
X108963266Y-92172012D01*
X109050313Y-92382163D01*
X109054795Y-92390958D01*
X109157432Y-92558445D01*
X109167890Y-92567907D01*
X109176666Y-92564124D01*
X110027978Y-91712812D01*
X110034356Y-91701132D01*
X110764408Y-91701132D01*
X110764539Y-91702965D01*
X110768790Y-91709580D01*
X111620290Y-92561080D01*
X111632670Y-92567840D01*
X111640320Y-92562113D01*
X111745205Y-92390958D01*
X111749687Y-92382163D01*
X111836734Y-92172012D01*
X111839783Y-92162627D01*
X111892885Y-91941446D01*
X111894428Y-91931699D01*
X111912275Y-91704930D01*
X112487725Y-91704930D01*
X112505572Y-91931699D01*
X112507115Y-91941446D01*
X112560217Y-92162627D01*
X112563266Y-92172012D01*
X112650313Y-92382163D01*
X112654795Y-92390958D01*
X112757432Y-92558445D01*
X112767890Y-92567907D01*
X112776666Y-92564124D01*
X113627978Y-91712812D01*
X113634356Y-91701132D01*
X114364408Y-91701132D01*
X114364539Y-91702965D01*
X114368790Y-91709580D01*
X115220290Y-92561080D01*
X115232670Y-92567840D01*
X115240320Y-92562113D01*
X115345205Y-92390958D01*
X115349687Y-92382163D01*
X115411609Y-92232670D01*
X168632160Y-92232670D01*
X168637887Y-92240320D01*
X168809042Y-92345205D01*
X168817837Y-92349687D01*
X169027988Y-92436734D01*
X169037373Y-92439783D01*
X169258554Y-92492885D01*
X169268301Y-92494428D01*
X169495070Y-92512275D01*
X169504930Y-92512275D01*
X169731699Y-92494428D01*
X169741446Y-92492885D01*
X169962627Y-92439783D01*
X169972012Y-92436734D01*
X170182163Y-92349687D01*
X170190958Y-92345205D01*
X170358445Y-92242568D01*
X170367907Y-92232110D01*
X170364124Y-92223334D01*
X169512812Y-91372022D01*
X169498868Y-91364408D01*
X169497035Y-91364539D01*
X169490420Y-91368790D01*
X168638920Y-92220290D01*
X168632160Y-92232670D01*
X115411609Y-92232670D01*
X115436734Y-92172012D01*
X115439783Y-92162627D01*
X115492885Y-91941446D01*
X115494428Y-91931699D01*
X115512275Y-91704930D01*
X115512275Y-91695070D01*
X115494428Y-91468301D01*
X115492885Y-91458554D01*
X115439783Y-91237373D01*
X115436734Y-91227988D01*
X115349687Y-91017837D01*
X115345205Y-91009042D01*
X115342685Y-91004930D01*
X167987725Y-91004930D01*
X168005572Y-91231699D01*
X168007115Y-91241446D01*
X168060217Y-91462627D01*
X168063266Y-91472012D01*
X168150313Y-91682163D01*
X168154795Y-91690958D01*
X168257432Y-91858445D01*
X168267890Y-91867907D01*
X168276666Y-91864124D01*
X169127978Y-91012812D01*
X169134356Y-91001132D01*
X169864408Y-91001132D01*
X169864539Y-91002965D01*
X169868790Y-91009580D01*
X170720290Y-91861080D01*
X170732670Y-91867840D01*
X170740320Y-91862113D01*
X170845205Y-91690958D01*
X170849687Y-91682163D01*
X170936734Y-91472012D01*
X170939783Y-91462627D01*
X170992885Y-91241446D01*
X170994428Y-91231699D01*
X171012275Y-91004930D01*
X171012275Y-90995070D01*
X170994428Y-90768301D01*
X170992885Y-90758554D01*
X170939783Y-90537373D01*
X170936734Y-90527988D01*
X170849687Y-90317837D01*
X170845205Y-90309042D01*
X170742568Y-90141555D01*
X170732110Y-90132093D01*
X170723334Y-90135876D01*
X169872022Y-90987188D01*
X169864408Y-91001132D01*
X169134356Y-91001132D01*
X169135592Y-90998868D01*
X169135461Y-90997035D01*
X169131210Y-90990420D01*
X168279710Y-90138920D01*
X168267330Y-90132160D01*
X168259680Y-90137887D01*
X168154795Y-90309042D01*
X168150313Y-90317837D01*
X168063266Y-90527988D01*
X168060217Y-90537373D01*
X168007115Y-90758554D01*
X168005572Y-90768301D01*
X167987725Y-90995070D01*
X167987725Y-91004930D01*
X115342685Y-91004930D01*
X115242568Y-90841555D01*
X115232110Y-90832093D01*
X115223334Y-90835876D01*
X114372022Y-91687188D01*
X114364408Y-91701132D01*
X113634356Y-91701132D01*
X113635592Y-91698868D01*
X113635461Y-91697035D01*
X113631210Y-91690420D01*
X112779710Y-90838920D01*
X112767330Y-90832160D01*
X112759680Y-90837887D01*
X112654795Y-91009042D01*
X112650313Y-91017837D01*
X112563266Y-91227988D01*
X112560217Y-91237373D01*
X112507115Y-91458554D01*
X112505572Y-91468301D01*
X112487725Y-91695070D01*
X112487725Y-91704930D01*
X111912275Y-91704930D01*
X111912275Y-91695070D01*
X111894428Y-91468301D01*
X111892885Y-91458554D01*
X111839783Y-91237373D01*
X111836734Y-91227988D01*
X111749687Y-91017837D01*
X111745205Y-91009042D01*
X111642568Y-90841555D01*
X111632110Y-90832093D01*
X111623334Y-90835876D01*
X110772022Y-91687188D01*
X110764408Y-91701132D01*
X110034356Y-91701132D01*
X110035592Y-91698868D01*
X110035461Y-91697035D01*
X110031210Y-91690420D01*
X109179710Y-90838920D01*
X109167330Y-90832160D01*
X109159680Y-90837887D01*
X109054795Y-91009042D01*
X109050313Y-91017837D01*
X108963266Y-91227988D01*
X108960217Y-91237373D01*
X108907115Y-91458554D01*
X108905572Y-91468301D01*
X108887725Y-91695070D01*
X108887725Y-91704930D01*
X100254500Y-91704930D01*
X100254500Y-90467890D01*
X109532093Y-90467890D01*
X109535876Y-90476666D01*
X110387188Y-91327978D01*
X110401132Y-91335592D01*
X110402965Y-91335461D01*
X110409580Y-91331210D01*
X111261080Y-90479710D01*
X111267534Y-90467890D01*
X113132093Y-90467890D01*
X113135876Y-90476666D01*
X113987188Y-91327978D01*
X114001132Y-91335592D01*
X114002965Y-91335461D01*
X114009580Y-91331210D01*
X114861080Y-90479710D01*
X114867840Y-90467330D01*
X114862113Y-90459680D01*
X114690958Y-90354795D01*
X114682163Y-90350313D01*
X114472012Y-90263266D01*
X114462627Y-90260217D01*
X114241446Y-90207115D01*
X114231699Y-90205572D01*
X114004930Y-90187725D01*
X113995070Y-90187725D01*
X113768301Y-90205572D01*
X113758554Y-90207115D01*
X113537373Y-90260217D01*
X113527988Y-90263266D01*
X113317837Y-90350313D01*
X113309042Y-90354795D01*
X113141555Y-90457432D01*
X113132093Y-90467890D01*
X111267534Y-90467890D01*
X111267840Y-90467330D01*
X111262113Y-90459680D01*
X111090958Y-90354795D01*
X111082163Y-90350313D01*
X110872012Y-90263266D01*
X110862627Y-90260217D01*
X110641446Y-90207115D01*
X110631699Y-90205572D01*
X110404930Y-90187725D01*
X110395070Y-90187725D01*
X110168301Y-90205572D01*
X110158554Y-90207115D01*
X109937373Y-90260217D01*
X109927988Y-90263266D01*
X109717837Y-90350313D01*
X109709042Y-90354795D01*
X109541555Y-90457432D01*
X109532093Y-90467890D01*
X100254500Y-90467890D01*
X100254500Y-89400000D01*
X103140793Y-89400000D01*
X103159569Y-89578639D01*
X103215075Y-89749471D01*
X103218378Y-89755193D01*
X103218379Y-89755194D01*
X103250648Y-89811084D01*
X103304887Y-89905029D01*
X103425078Y-90038515D01*
X103430420Y-90042396D01*
X103430422Y-90042398D01*
X103561851Y-90137887D01*
X103570396Y-90144095D01*
X103576424Y-90146779D01*
X103576426Y-90146780D01*
X103668391Y-90187725D01*
X103734490Y-90217154D01*
X103822339Y-90235827D01*
X103903731Y-90253128D01*
X103903736Y-90253128D01*
X103910188Y-90254500D01*
X104089812Y-90254500D01*
X104096264Y-90253128D01*
X104096269Y-90253128D01*
X104177661Y-90235827D01*
X104265510Y-90217154D01*
X104331609Y-90187725D01*
X104423574Y-90146780D01*
X104423576Y-90146779D01*
X104429604Y-90144095D01*
X104438149Y-90137887D01*
X104569578Y-90042398D01*
X104569580Y-90042396D01*
X104574922Y-90038515D01*
X104695113Y-89905029D01*
X104749352Y-89811084D01*
X104781621Y-89755194D01*
X104781622Y-89755193D01*
X104784925Y-89749471D01*
X104840431Y-89578639D01*
X104859207Y-89400000D01*
X105140793Y-89400000D01*
X105159569Y-89578639D01*
X105215075Y-89749471D01*
X105218378Y-89755193D01*
X105218379Y-89755194D01*
X105250648Y-89811084D01*
X105304887Y-89905029D01*
X105425078Y-90038515D01*
X105430420Y-90042396D01*
X105430422Y-90042398D01*
X105561851Y-90137887D01*
X105570396Y-90144095D01*
X105576424Y-90146779D01*
X105576426Y-90146780D01*
X105668391Y-90187725D01*
X105734490Y-90217154D01*
X105822339Y-90235827D01*
X105903731Y-90253128D01*
X105903736Y-90253128D01*
X105910188Y-90254500D01*
X106089812Y-90254500D01*
X106096264Y-90253128D01*
X106096269Y-90253128D01*
X106177661Y-90235827D01*
X106265510Y-90217154D01*
X106331609Y-90187725D01*
X106423574Y-90146780D01*
X106423576Y-90146779D01*
X106429604Y-90144095D01*
X106438149Y-90137887D01*
X106569578Y-90042398D01*
X106569580Y-90042396D01*
X106574922Y-90038515D01*
X106695113Y-89905029D01*
X106749352Y-89811084D01*
X106774291Y-89767890D01*
X168632093Y-89767890D01*
X168635876Y-89776666D01*
X169487188Y-90627978D01*
X169501132Y-90635592D01*
X169502965Y-90635461D01*
X169509580Y-90631210D01*
X170361080Y-89779710D01*
X170367840Y-89767330D01*
X170362113Y-89759680D01*
X170190958Y-89654795D01*
X170182163Y-89650313D01*
X169972012Y-89563266D01*
X169962627Y-89560217D01*
X169741446Y-89507115D01*
X169731699Y-89505572D01*
X169504930Y-89487725D01*
X169495070Y-89487725D01*
X169268301Y-89505572D01*
X169258554Y-89507115D01*
X169037373Y-89560217D01*
X169027988Y-89563266D01*
X168817837Y-89650313D01*
X168809042Y-89654795D01*
X168641555Y-89757432D01*
X168632093Y-89767890D01*
X106774291Y-89767890D01*
X106781621Y-89755194D01*
X106781622Y-89755193D01*
X106784925Y-89749471D01*
X106840431Y-89578639D01*
X106859207Y-89400000D01*
X106842407Y-89240161D01*
X106841121Y-89227925D01*
X106841121Y-89227924D01*
X106840431Y-89221361D01*
X106831185Y-89192905D01*
X106786967Y-89056813D01*
X106786966Y-89056811D01*
X106784925Y-89050529D01*
X106695113Y-88894971D01*
X106574922Y-88761485D01*
X106531100Y-88729646D01*
X106434946Y-88659786D01*
X106434945Y-88659785D01*
X106429604Y-88655905D01*
X106423576Y-88653221D01*
X106423574Y-88653220D01*
X106271541Y-88585531D01*
X106271540Y-88585531D01*
X106265510Y-88582846D01*
X106177661Y-88564173D01*
X106096269Y-88546872D01*
X106096264Y-88546872D01*
X106089812Y-88545500D01*
X105910188Y-88545500D01*
X105903736Y-88546872D01*
X105903731Y-88546872D01*
X105822339Y-88564173D01*
X105734490Y-88582846D01*
X105728460Y-88585531D01*
X105728459Y-88585531D01*
X105576427Y-88653220D01*
X105576425Y-88653221D01*
X105570397Y-88655905D01*
X105565056Y-88659785D01*
X105565055Y-88659786D01*
X105430422Y-88757602D01*
X105430420Y-88757604D01*
X105425078Y-88761485D01*
X105304887Y-88894971D01*
X105215075Y-89050529D01*
X105213034Y-89056811D01*
X105213033Y-89056813D01*
X105168815Y-89192905D01*
X105159569Y-89221361D01*
X105158879Y-89227924D01*
X105158879Y-89227925D01*
X105157593Y-89240161D01*
X105140793Y-89400000D01*
X104859207Y-89400000D01*
X104842407Y-89240161D01*
X104841121Y-89227925D01*
X104841121Y-89227924D01*
X104840431Y-89221361D01*
X104831185Y-89192905D01*
X104786967Y-89056813D01*
X104786966Y-89056811D01*
X104784925Y-89050529D01*
X104695113Y-88894971D01*
X104574922Y-88761485D01*
X104531100Y-88729646D01*
X104434946Y-88659786D01*
X104434945Y-88659785D01*
X104429604Y-88655905D01*
X104423576Y-88653221D01*
X104423574Y-88653220D01*
X104271541Y-88585531D01*
X104271540Y-88585531D01*
X104265510Y-88582846D01*
X104177661Y-88564173D01*
X104096269Y-88546872D01*
X104096264Y-88546872D01*
X104089812Y-88545500D01*
X103910188Y-88545500D01*
X103903736Y-88546872D01*
X103903731Y-88546872D01*
X103822339Y-88564173D01*
X103734490Y-88582846D01*
X103728460Y-88585531D01*
X103728459Y-88585531D01*
X103576427Y-88653220D01*
X103576425Y-88653221D01*
X103570397Y-88655905D01*
X103565056Y-88659785D01*
X103565055Y-88659786D01*
X103430422Y-88757602D01*
X103430420Y-88757604D01*
X103425078Y-88761485D01*
X103304887Y-88894971D01*
X103215075Y-89050529D01*
X103213034Y-89056811D01*
X103213033Y-89056813D01*
X103168815Y-89192905D01*
X103159569Y-89221361D01*
X103158879Y-89227924D01*
X103158879Y-89227925D01*
X103157593Y-89240161D01*
X103140793Y-89400000D01*
X100254500Y-89400000D01*
X100254500Y-88000000D01*
X109140708Y-88000000D01*
X109159839Y-88218674D01*
X109216653Y-88430703D01*
X109246846Y-88495452D01*
X109307095Y-88624659D01*
X109307098Y-88624664D01*
X109309421Y-88629646D01*
X109312577Y-88634153D01*
X109312578Y-88634155D01*
X109401736Y-88761485D01*
X109435326Y-88809457D01*
X109590543Y-88964674D01*
X109595051Y-88967831D01*
X109595054Y-88967833D01*
X109737869Y-89067833D01*
X109770354Y-89090579D01*
X109775336Y-89092902D01*
X109775341Y-89092905D01*
X109876116Y-89139896D01*
X109969297Y-89183347D01*
X110181326Y-89240161D01*
X110400000Y-89259292D01*
X110618674Y-89240161D01*
X110830703Y-89183347D01*
X110923884Y-89139896D01*
X111024659Y-89092905D01*
X111024664Y-89092902D01*
X111029646Y-89090579D01*
X111062131Y-89067833D01*
X111204946Y-88967833D01*
X111204949Y-88967831D01*
X111209457Y-88964674D01*
X111364674Y-88809457D01*
X111398265Y-88761485D01*
X111487422Y-88634155D01*
X111487423Y-88634153D01*
X111490579Y-88629646D01*
X111492902Y-88624664D01*
X111492905Y-88624659D01*
X111553154Y-88495452D01*
X111583347Y-88430703D01*
X111640161Y-88218674D01*
X111650543Y-88100000D01*
X112740708Y-88100000D01*
X112759839Y-88318674D01*
X112816653Y-88530703D01*
X112834876Y-88569782D01*
X112907095Y-88724659D01*
X112907098Y-88724664D01*
X112909421Y-88729646D01*
X112912575Y-88734150D01*
X112912578Y-88734155D01*
X113029187Y-88900689D01*
X113035326Y-88909457D01*
X113190543Y-89064674D01*
X113195051Y-89067831D01*
X113195054Y-89067833D01*
X113362058Y-89184770D01*
X113370354Y-89190579D01*
X113375336Y-89192902D01*
X113375341Y-89192905D01*
X113450443Y-89227925D01*
X113569297Y-89283347D01*
X113781326Y-89340161D01*
X114000000Y-89359292D01*
X114218674Y-89340161D01*
X114430703Y-89283347D01*
X114549557Y-89227925D01*
X114624659Y-89192905D01*
X114624664Y-89192902D01*
X114629646Y-89190579D01*
X114637942Y-89184770D01*
X114804946Y-89067833D01*
X114804949Y-89067831D01*
X114809457Y-89064674D01*
X114964674Y-88909457D01*
X114970814Y-88900689D01*
X115071004Y-88757602D01*
X115090579Y-88729646D01*
X115115012Y-88677249D01*
X115161928Y-88623965D01*
X115229206Y-88604500D01*
X122829376Y-88604500D01*
X122841381Y-88605841D01*
X122841421Y-88605345D01*
X122850368Y-88606065D01*
X122859124Y-88608046D01*
X122912382Y-88604742D01*
X122920184Y-88604500D01*
X122936226Y-88604500D01*
X122940657Y-88603865D01*
X122940662Y-88603865D01*
X122944687Y-88603288D01*
X122946457Y-88603035D01*
X122956514Y-88602004D01*
X122978976Y-88600611D01*
X122994400Y-88599654D01*
X122994402Y-88599654D01*
X123003359Y-88599098D01*
X123011799Y-88596051D01*
X123015089Y-88595370D01*
X123030938Y-88591418D01*
X123034168Y-88590473D01*
X123043052Y-88589201D01*
X123051223Y-88585486D01*
X123085763Y-88569782D01*
X123095128Y-88565970D01*
X123130837Y-88553078D01*
X123130840Y-88553076D01*
X123139284Y-88550028D01*
X123146533Y-88544732D01*
X123149490Y-88543160D01*
X123163614Y-88534907D01*
X123166437Y-88533102D01*
X123174605Y-88529388D01*
X123181402Y-88523531D01*
X123181404Y-88523530D01*
X123210153Y-88498757D01*
X123218064Y-88492475D01*
X123228944Y-88484527D01*
X123239806Y-88473665D01*
X123246653Y-88467307D01*
X123277282Y-88440915D01*
X123284082Y-88435056D01*
X123288966Y-88427521D01*
X123294699Y-88420949D01*
X123303926Y-88409545D01*
X124713471Y-87000000D01*
X168240708Y-87000000D01*
X168259839Y-87218674D01*
X168316653Y-87430703D01*
X168337465Y-87475334D01*
X168407095Y-87624659D01*
X168407098Y-87624664D01*
X168409421Y-87629646D01*
X168412577Y-87634153D01*
X168412578Y-87634155D01*
X168519464Y-87786803D01*
X168535326Y-87809457D01*
X168690543Y-87964674D01*
X168695051Y-87967831D01*
X168695054Y-87967833D01*
X168865845Y-88087422D01*
X168870354Y-88090579D01*
X168875336Y-88092902D01*
X168875341Y-88092905D01*
X168976116Y-88139896D01*
X169069297Y-88183347D01*
X169281326Y-88240161D01*
X169500000Y-88259292D01*
X169718674Y-88240161D01*
X169930703Y-88183347D01*
X170023884Y-88139896D01*
X170124659Y-88092905D01*
X170124664Y-88092902D01*
X170129646Y-88090579D01*
X170134155Y-88087422D01*
X170304946Y-87967833D01*
X170304949Y-87967831D01*
X170309457Y-87964674D01*
X170464674Y-87809457D01*
X170480537Y-87786803D01*
X170587422Y-87634155D01*
X170587423Y-87634153D01*
X170590579Y-87629646D01*
X170592902Y-87624664D01*
X170592905Y-87624659D01*
X170662535Y-87475334D01*
X170683347Y-87430703D01*
X170740161Y-87218674D01*
X170747685Y-87132670D01*
X176732160Y-87132670D01*
X176737887Y-87140320D01*
X176909042Y-87245205D01*
X176917837Y-87249687D01*
X177127988Y-87336734D01*
X177137373Y-87339783D01*
X177358554Y-87392885D01*
X177368301Y-87394428D01*
X177595070Y-87412275D01*
X177604930Y-87412275D01*
X177831699Y-87394428D01*
X177841446Y-87392885D01*
X178062627Y-87339783D01*
X178072012Y-87336734D01*
X178282163Y-87249687D01*
X178290958Y-87245205D01*
X178458445Y-87142568D01*
X178467907Y-87132110D01*
X178464124Y-87123334D01*
X177612812Y-86272022D01*
X177598868Y-86264408D01*
X177597035Y-86264539D01*
X177590420Y-86268790D01*
X176738920Y-87120290D01*
X176732160Y-87132670D01*
X170747685Y-87132670D01*
X170759292Y-87000000D01*
X170740161Y-86781326D01*
X170683347Y-86569297D01*
X170615902Y-86424659D01*
X170592905Y-86375341D01*
X170592902Y-86375336D01*
X170590579Y-86370354D01*
X170587422Y-86365845D01*
X170467833Y-86195054D01*
X170467831Y-86195051D01*
X170464674Y-86190543D01*
X170309457Y-86035326D01*
X170304949Y-86032169D01*
X170304946Y-86032167D01*
X170134155Y-85912578D01*
X170134153Y-85912577D01*
X170129646Y-85909421D01*
X170124664Y-85907098D01*
X170124659Y-85907095D01*
X170023884Y-85860104D01*
X169930703Y-85816653D01*
X169718674Y-85759839D01*
X169500000Y-85740708D01*
X169281326Y-85759839D01*
X169069297Y-85816653D01*
X168976116Y-85860104D01*
X168875341Y-85907095D01*
X168875336Y-85907098D01*
X168870354Y-85909421D01*
X168865847Y-85912577D01*
X168865845Y-85912578D01*
X168695054Y-86032167D01*
X168695051Y-86032169D01*
X168690543Y-86035326D01*
X168535326Y-86190543D01*
X168532169Y-86195051D01*
X168532167Y-86195054D01*
X168412578Y-86365845D01*
X168409421Y-86370354D01*
X168407098Y-86375336D01*
X168407095Y-86375341D01*
X168384098Y-86424659D01*
X168316653Y-86569297D01*
X168259839Y-86781326D01*
X168240708Y-87000000D01*
X124713471Y-87000000D01*
X127680801Y-84032670D01*
X168632160Y-84032670D01*
X168637887Y-84040320D01*
X168809042Y-84145205D01*
X168817837Y-84149687D01*
X169027988Y-84236734D01*
X169037373Y-84239783D01*
X169258554Y-84292885D01*
X169268301Y-84294428D01*
X169495070Y-84312275D01*
X169504930Y-84312275D01*
X169731699Y-84294428D01*
X169741446Y-84292885D01*
X169962627Y-84239783D01*
X169972012Y-84236734D01*
X170182163Y-84149687D01*
X170190958Y-84145205D01*
X170358445Y-84042568D01*
X170367907Y-84032110D01*
X170364124Y-84023334D01*
X169512812Y-83172022D01*
X169498868Y-83164408D01*
X169497035Y-83164539D01*
X169490420Y-83168790D01*
X168638920Y-84020290D01*
X168632160Y-84032670D01*
X127680801Y-84032670D01*
X128908541Y-82804930D01*
X167987725Y-82804930D01*
X168005572Y-83031699D01*
X168007115Y-83041446D01*
X168060217Y-83262627D01*
X168063266Y-83272012D01*
X168150313Y-83482163D01*
X168154795Y-83490958D01*
X168257432Y-83658445D01*
X168267890Y-83667907D01*
X168276666Y-83664124D01*
X169127978Y-82812812D01*
X169134356Y-82801132D01*
X169864408Y-82801132D01*
X169864539Y-82802965D01*
X169868790Y-82809580D01*
X170720290Y-83661080D01*
X170732670Y-83667840D01*
X170740320Y-83662113D01*
X170845205Y-83490958D01*
X170849687Y-83482163D01*
X170936734Y-83272012D01*
X170939783Y-83262627D01*
X170992885Y-83041446D01*
X170994428Y-83031699D01*
X171012275Y-82804930D01*
X171012275Y-82795070D01*
X170994428Y-82568301D01*
X170992885Y-82558554D01*
X170939783Y-82337373D01*
X170936734Y-82327988D01*
X170849687Y-82117837D01*
X170845205Y-82109042D01*
X170742568Y-81941555D01*
X170732110Y-81932093D01*
X170723334Y-81935876D01*
X169872022Y-82787188D01*
X169864408Y-82801132D01*
X169134356Y-82801132D01*
X169135592Y-82798868D01*
X169135461Y-82797035D01*
X169131210Y-82790420D01*
X168279710Y-81938920D01*
X168267330Y-81932160D01*
X168259680Y-81937887D01*
X168154795Y-82109042D01*
X168150313Y-82117837D01*
X168063266Y-82327988D01*
X168060217Y-82337373D01*
X168007115Y-82558554D01*
X168005572Y-82568301D01*
X167987725Y-82795070D01*
X167987725Y-82804930D01*
X128908541Y-82804930D01*
X130145581Y-81567890D01*
X168632093Y-81567890D01*
X168635876Y-81576666D01*
X169487188Y-82427978D01*
X169501132Y-82435592D01*
X169502965Y-82435461D01*
X169509580Y-82431210D01*
X170361080Y-81579710D01*
X170367840Y-81567330D01*
X170362113Y-81559680D01*
X170190958Y-81454795D01*
X170182163Y-81450313D01*
X169972012Y-81363266D01*
X169962627Y-81360217D01*
X169741446Y-81307115D01*
X169731699Y-81305572D01*
X169504930Y-81287725D01*
X169495070Y-81287725D01*
X169268301Y-81305572D01*
X169258554Y-81307115D01*
X169037373Y-81360217D01*
X169027988Y-81363266D01*
X168817837Y-81450313D01*
X168809042Y-81454795D01*
X168641555Y-81557432D01*
X168632093Y-81567890D01*
X130145581Y-81567890D01*
X130706794Y-81006677D01*
X130716234Y-80999135D01*
X130715911Y-80998755D01*
X130722747Y-80992937D01*
X130730339Y-80988147D01*
X130765672Y-80948140D01*
X130771017Y-80942454D01*
X130782351Y-80931120D01*
X130785038Y-80927534D01*
X130785043Y-80927529D01*
X130788557Y-80922841D01*
X130794938Y-80915003D01*
X130820058Y-80886559D01*
X130826001Y-80879830D01*
X130829816Y-80871705D01*
X130831669Y-80868884D01*
X130840077Y-80854888D01*
X130841686Y-80851950D01*
X130847071Y-80844764D01*
X130863544Y-80800822D01*
X130867471Y-80791501D01*
X130883602Y-80757144D01*
X130883602Y-80757143D01*
X130887417Y-80749018D01*
X130888798Y-80740147D01*
X130889783Y-80736925D01*
X130893923Y-80721142D01*
X130894645Y-80717858D01*
X130897798Y-80709448D01*
X130901276Y-80662643D01*
X130902430Y-80652595D01*
X130903751Y-80644114D01*
X130903751Y-80644113D01*
X130904500Y-80639303D01*
X130904500Y-80623934D01*
X130904847Y-80614596D01*
X130907843Y-80574284D01*
X130907843Y-80574283D01*
X130908508Y-80565333D01*
X130906635Y-80556558D01*
X130906043Y-80547874D01*
X130904500Y-80533258D01*
X130904500Y-71860144D01*
X130928176Y-71786620D01*
X130977755Y-71717624D01*
X131036842Y-71570641D01*
X131047692Y-71494400D01*
X131058581Y-71417891D01*
X131058581Y-71417888D01*
X131059162Y-71413807D01*
X131059307Y-71400000D01*
X131040276Y-71242733D01*
X130984280Y-71094546D01*
X130933229Y-71020266D01*
X130898855Y-70970251D01*
X130898854Y-70970249D01*
X130894553Y-70963992D01*
X130881425Y-70952295D01*
X130837526Y-70913183D01*
X130776275Y-70858611D01*
X130768889Y-70854700D01*
X130642988Y-70788039D01*
X130642989Y-70788039D01*
X130636274Y-70784484D01*
X130482633Y-70745892D01*
X130475034Y-70745852D01*
X130475033Y-70745852D01*
X130409181Y-70745507D01*
X130324221Y-70745062D01*
X130316841Y-70746834D01*
X130316839Y-70746834D01*
X130177563Y-70780271D01*
X130177560Y-70780272D01*
X130170184Y-70782043D01*
X130029414Y-70854700D01*
X129910039Y-70958838D01*
X129818950Y-71088444D01*
X129761406Y-71236037D01*
X129760414Y-71243570D01*
X129760414Y-71243571D01*
X129744022Y-71368084D01*
X129740729Y-71393096D01*
X129747732Y-71456523D01*
X129754198Y-71515089D01*
X129758113Y-71550553D01*
X129760723Y-71557684D01*
X129760723Y-71557686D01*
X129798078Y-71659763D01*
X129812553Y-71699319D01*
X129816789Y-71705622D01*
X129816789Y-71705623D01*
X129874082Y-71790884D01*
X129895500Y-71861160D01*
X129895500Y-80338839D01*
X129875498Y-80406960D01*
X129858595Y-80427934D01*
X122727934Y-87558595D01*
X122665622Y-87592621D01*
X122638839Y-87595500D01*
X115229206Y-87595500D01*
X115161085Y-87575498D01*
X115115011Y-87522750D01*
X115092901Y-87475334D01*
X115090579Y-87470354D01*
X114964674Y-87290543D01*
X114809457Y-87135326D01*
X114804949Y-87132169D01*
X114804946Y-87132167D01*
X114634155Y-87012578D01*
X114634153Y-87012577D01*
X114629646Y-87009421D01*
X114624664Y-87007098D01*
X114624659Y-87007095D01*
X114523884Y-86960104D01*
X114430703Y-86916653D01*
X114218674Y-86859839D01*
X114000000Y-86840708D01*
X113781326Y-86859839D01*
X113569297Y-86916653D01*
X113476116Y-86960104D01*
X113375341Y-87007095D01*
X113375336Y-87007098D01*
X113370354Y-87009421D01*
X113365847Y-87012577D01*
X113365845Y-87012578D01*
X113195054Y-87132167D01*
X113195051Y-87132169D01*
X113190543Y-87135326D01*
X113035326Y-87290543D01*
X113032169Y-87295051D01*
X113032167Y-87295054D01*
X112937185Y-87430703D01*
X112909421Y-87470354D01*
X112907099Y-87475334D01*
X112907095Y-87475341D01*
X112878021Y-87537692D01*
X112816653Y-87669297D01*
X112759839Y-87881326D01*
X112740708Y-88100000D01*
X111650543Y-88100000D01*
X111659292Y-88000000D01*
X111640161Y-87781326D01*
X111612665Y-87678712D01*
X111593897Y-87608669D01*
X111595587Y-87537692D01*
X111626509Y-87486962D01*
X113972066Y-85141405D01*
X114034378Y-85107379D01*
X114061161Y-85104500D01*
X119429376Y-85104500D01*
X119441381Y-85105841D01*
X119441421Y-85105345D01*
X119450368Y-85106065D01*
X119459124Y-85108046D01*
X119512382Y-85104742D01*
X119520184Y-85104500D01*
X119536226Y-85104500D01*
X119540657Y-85103865D01*
X119540662Y-85103865D01*
X119544687Y-85103288D01*
X119546457Y-85103035D01*
X119556514Y-85102004D01*
X119578976Y-85100611D01*
X119594400Y-85099654D01*
X119594402Y-85099654D01*
X119603359Y-85099098D01*
X119611799Y-85096051D01*
X119615089Y-85095370D01*
X119630938Y-85091418D01*
X119634168Y-85090473D01*
X119643052Y-85089201D01*
X119685763Y-85069782D01*
X119695128Y-85065970D01*
X119730837Y-85053078D01*
X119730840Y-85053076D01*
X119739284Y-85050028D01*
X119746533Y-85044732D01*
X119749490Y-85043160D01*
X119763614Y-85034907D01*
X119766437Y-85033102D01*
X119774605Y-85029388D01*
X119781402Y-85023531D01*
X119781404Y-85023530D01*
X119810153Y-84998757D01*
X119818064Y-84992475D01*
X119828944Y-84984527D01*
X119839806Y-84973665D01*
X119846653Y-84967307D01*
X119877282Y-84940915D01*
X119884082Y-84935056D01*
X119888966Y-84927521D01*
X119894699Y-84920949D01*
X119903926Y-84909545D01*
X128328834Y-76484637D01*
X128389800Y-76450912D01*
X128515927Y-76422025D01*
X128523332Y-76420329D01*
X128622089Y-76370660D01*
X128658072Y-76352563D01*
X128658075Y-76352561D01*
X128664855Y-76349151D01*
X128670626Y-76344222D01*
X128670629Y-76344220D01*
X128779536Y-76251204D01*
X128779536Y-76251203D01*
X128785314Y-76246269D01*
X128877755Y-76117624D01*
X128936842Y-75970641D01*
X128951575Y-75867120D01*
X128958581Y-75817891D01*
X128958581Y-75817888D01*
X128959162Y-75813807D01*
X128959307Y-75800000D01*
X128940276Y-75642733D01*
X128884280Y-75494546D01*
X128863281Y-75463992D01*
X128798855Y-75370251D01*
X128798854Y-75370249D01*
X128794553Y-75363992D01*
X128788514Y-75358611D01*
X128712979Y-75291313D01*
X128676275Y-75258611D01*
X128668889Y-75254700D01*
X128542988Y-75188039D01*
X128542989Y-75188039D01*
X128536274Y-75184484D01*
X128382633Y-75145892D01*
X128375034Y-75145852D01*
X128375033Y-75145852D01*
X128309181Y-75145507D01*
X128224221Y-75145062D01*
X128216841Y-75146834D01*
X128216839Y-75146834D01*
X128077563Y-75180271D01*
X128077560Y-75180272D01*
X128070184Y-75182043D01*
X127929414Y-75254700D01*
X127810039Y-75358838D01*
X127718950Y-75488444D01*
X127698314Y-75541373D01*
X127677583Y-75594546D01*
X127661406Y-75636037D01*
X127660415Y-75643568D01*
X127660414Y-75643570D01*
X127653482Y-75696226D01*
X127624759Y-75761153D01*
X127617655Y-75768874D01*
X119327934Y-84058595D01*
X119265622Y-84092621D01*
X119238839Y-84095500D01*
X113870624Y-84095500D01*
X113858619Y-84094159D01*
X113858579Y-84094655D01*
X113849632Y-84093935D01*
X113840876Y-84091954D01*
X113797338Y-84094655D01*
X113787618Y-84095258D01*
X113779816Y-84095500D01*
X113763774Y-84095500D01*
X113759343Y-84096135D01*
X113759338Y-84096135D01*
X113755313Y-84096712D01*
X113753543Y-84096965D01*
X113743486Y-84097996D01*
X113721024Y-84099389D01*
X113705600Y-84100346D01*
X113705598Y-84100346D01*
X113696641Y-84100902D01*
X113688201Y-84103949D01*
X113684911Y-84104630D01*
X113669062Y-84108582D01*
X113665832Y-84109527D01*
X113656948Y-84110799D01*
X113614222Y-84130225D01*
X113604860Y-84134036D01*
X113569158Y-84146925D01*
X113569157Y-84146926D01*
X113560716Y-84149973D01*
X113553467Y-84155269D01*
X113550486Y-84156854D01*
X113536408Y-84165080D01*
X113533569Y-84166896D01*
X113525395Y-84170612D01*
X113489848Y-84201242D01*
X113481930Y-84207530D01*
X113471056Y-84215473D01*
X113460194Y-84226335D01*
X113453348Y-84232693D01*
X113415918Y-84264944D01*
X113411034Y-84272479D01*
X113405301Y-84279051D01*
X113396074Y-84290455D01*
X110913038Y-86773491D01*
X110850726Y-86807517D01*
X110791331Y-86806103D01*
X110669623Y-86773491D01*
X110618674Y-86759839D01*
X110400000Y-86740708D01*
X110181326Y-86759839D01*
X109969297Y-86816653D01*
X109877711Y-86859360D01*
X109775341Y-86907095D01*
X109775336Y-86907098D01*
X109770354Y-86909421D01*
X109765847Y-86912577D01*
X109765845Y-86912578D01*
X109595054Y-87032167D01*
X109595051Y-87032169D01*
X109590543Y-87035326D01*
X109435326Y-87190543D01*
X109432169Y-87195051D01*
X109432167Y-87195054D01*
X109332962Y-87336734D01*
X109309421Y-87370354D01*
X109307098Y-87375336D01*
X109307095Y-87375341D01*
X109281280Y-87430703D01*
X109216653Y-87569297D01*
X109159839Y-87781326D01*
X109140708Y-88000000D01*
X100254500Y-88000000D01*
X100254500Y-75595245D01*
X100274502Y-75527124D01*
X100328158Y-75480631D01*
X100398432Y-75470527D01*
X100463012Y-75500021D01*
X100497243Y-75547841D01*
X100538837Y-75650273D01*
X100544458Y-75664117D01*
X100662983Y-75857533D01*
X100811506Y-76028993D01*
X100986039Y-76173893D01*
X101181895Y-76288342D01*
X101186715Y-76290182D01*
X101186720Y-76290185D01*
X101276584Y-76324500D01*
X101393813Y-76369265D01*
X101398881Y-76370296D01*
X101398884Y-76370297D01*
X101507980Y-76392493D01*
X101616102Y-76414491D01*
X101621275Y-76414681D01*
X101621278Y-76414681D01*
X101837629Y-76422614D01*
X101837633Y-76422614D01*
X101842793Y-76422803D01*
X101847913Y-76422147D01*
X101847915Y-76422147D01*
X101919254Y-76413008D01*
X102067797Y-76393979D01*
X102072746Y-76392494D01*
X102072752Y-76392493D01*
X102206412Y-76352393D01*
X102285073Y-76328794D01*
X102488784Y-76228996D01*
X102492988Y-76225998D01*
X102492992Y-76225995D01*
X102570670Y-76170588D01*
X102673461Y-76097268D01*
X102834143Y-75937146D01*
X102857865Y-75904134D01*
X102963497Y-75757130D01*
X102966515Y-75752930D01*
X103017252Y-75650273D01*
X103064729Y-75554210D01*
X103064730Y-75554208D01*
X103067023Y-75549568D01*
X103132966Y-75332522D01*
X103138822Y-75288039D01*
X103162138Y-75110941D01*
X103162139Y-75110935D01*
X103162575Y-75107619D01*
X103163994Y-75049580D01*
X103164146Y-75043364D01*
X103164146Y-75043360D01*
X103164228Y-75040000D01*
X103161448Y-75006180D01*
X105476185Y-75006180D01*
X105476482Y-75011332D01*
X105476482Y-75011336D01*
X105482034Y-75107619D01*
X105489243Y-75232647D01*
X105490380Y-75237693D01*
X105490381Y-75237699D01*
X105517705Y-75358941D01*
X105539114Y-75453941D01*
X105541056Y-75458723D01*
X105541057Y-75458727D01*
X105622514Y-75659330D01*
X105624458Y-75664117D01*
X105742983Y-75857533D01*
X105891506Y-76028993D01*
X106066039Y-76173893D01*
X106261895Y-76288342D01*
X106266715Y-76290182D01*
X106266720Y-76290185D01*
X106356584Y-76324500D01*
X106473813Y-76369265D01*
X106478881Y-76370296D01*
X106478884Y-76370297D01*
X106587980Y-76392493D01*
X106696102Y-76414491D01*
X106701275Y-76414681D01*
X106701278Y-76414681D01*
X106917629Y-76422614D01*
X106917633Y-76422614D01*
X106922793Y-76422803D01*
X106927913Y-76422147D01*
X106927915Y-76422147D01*
X106999254Y-76413008D01*
X107147797Y-76393979D01*
X107152746Y-76392494D01*
X107152752Y-76392493D01*
X107286412Y-76352393D01*
X107365073Y-76328794D01*
X107568784Y-76228996D01*
X107572988Y-76225998D01*
X107572992Y-76225995D01*
X107650670Y-76170588D01*
X107753461Y-76097268D01*
X107914143Y-75937146D01*
X107937865Y-75904134D01*
X108043497Y-75757130D01*
X108046515Y-75752930D01*
X108097252Y-75650273D01*
X108144729Y-75554210D01*
X108144730Y-75554208D01*
X108147023Y-75549568D01*
X108212966Y-75332522D01*
X108218822Y-75288039D01*
X108242138Y-75110941D01*
X108242139Y-75110935D01*
X108242575Y-75107619D01*
X108243994Y-75049580D01*
X108244146Y-75043364D01*
X108244146Y-75043360D01*
X108244228Y-75040000D01*
X108225641Y-74813920D01*
X108179286Y-74629376D01*
X108171637Y-74598923D01*
X108171637Y-74598922D01*
X108170378Y-74593911D01*
X108079925Y-74385882D01*
X107956710Y-74195420D01*
X107929158Y-74165140D01*
X107807519Y-74031462D01*
X107807518Y-74031461D01*
X107804041Y-74027640D01*
X107799990Y-74024441D01*
X107799986Y-74024437D01*
X107630075Y-73890249D01*
X107630071Y-73890247D01*
X107626020Y-73887047D01*
X107427427Y-73777418D01*
X107422558Y-73775694D01*
X107422554Y-73775692D01*
X107218470Y-73703422D01*
X107218466Y-73703421D01*
X107213595Y-73701696D01*
X107208502Y-73700789D01*
X107208499Y-73700788D01*
X106995356Y-73662821D01*
X106995350Y-73662820D01*
X106990267Y-73661915D01*
X106916724Y-73661017D01*
X106768611Y-73659207D01*
X106768609Y-73659207D01*
X106763441Y-73659144D01*
X106539208Y-73693456D01*
X106388968Y-73742562D01*
X106328509Y-73762323D01*
X106328507Y-73762324D01*
X106323590Y-73763931D01*
X106319004Y-73766318D01*
X106319000Y-73766320D01*
X106198085Y-73829265D01*
X106122378Y-73868676D01*
X105940975Y-74004877D01*
X105784253Y-74168877D01*
X105781339Y-74173149D01*
X105781338Y-74173150D01*
X105659340Y-74351992D01*
X105659337Y-74351997D01*
X105656421Y-74356272D01*
X105560912Y-74562029D01*
X105500290Y-74780622D01*
X105476185Y-75006180D01*
X103161448Y-75006180D01*
X103145641Y-74813920D01*
X103099286Y-74629376D01*
X103091637Y-74598923D01*
X103091637Y-74598922D01*
X103090378Y-74593911D01*
X102999925Y-74385882D01*
X102876710Y-74195420D01*
X102849158Y-74165140D01*
X102727519Y-74031462D01*
X102727518Y-74031461D01*
X102724041Y-74027640D01*
X102719990Y-74024441D01*
X102719986Y-74024437D01*
X102550075Y-73890249D01*
X102550071Y-73890247D01*
X102546020Y-73887047D01*
X102347427Y-73777418D01*
X102342558Y-73775694D01*
X102342554Y-73775692D01*
X102138470Y-73703422D01*
X102138466Y-73703421D01*
X102133595Y-73701696D01*
X102128502Y-73700789D01*
X102128499Y-73700788D01*
X101915356Y-73662821D01*
X101915350Y-73662820D01*
X101910267Y-73661915D01*
X101836724Y-73661017D01*
X101688611Y-73659207D01*
X101688609Y-73659207D01*
X101683441Y-73659144D01*
X101459208Y-73693456D01*
X101308968Y-73742562D01*
X101248509Y-73762323D01*
X101248507Y-73762324D01*
X101243590Y-73763931D01*
X101239004Y-73766318D01*
X101239000Y-73766320D01*
X101118085Y-73829265D01*
X101042378Y-73868676D01*
X100860975Y-74004877D01*
X100704253Y-74168877D01*
X100701339Y-74173149D01*
X100701338Y-74173150D01*
X100579340Y-74351992D01*
X100579337Y-74351997D01*
X100576421Y-74356272D01*
X100496131Y-74529242D01*
X100494788Y-74532136D01*
X100447964Y-74585503D01*
X100379721Y-74605084D01*
X100311725Y-74584661D01*
X100265565Y-74530718D01*
X100254500Y-74479086D01*
X100254500Y-72466180D01*
X102936185Y-72466180D01*
X102936482Y-72471332D01*
X102936482Y-72471336D01*
X102942034Y-72567619D01*
X102949243Y-72692647D01*
X102950380Y-72697693D01*
X102950381Y-72697699D01*
X102970596Y-72787396D01*
X102999114Y-72913941D01*
X103084458Y-73124117D01*
X103202983Y-73317533D01*
X103351506Y-73488993D01*
X103526039Y-73633893D01*
X103721895Y-73748342D01*
X103726715Y-73750182D01*
X103726720Y-73750185D01*
X103804582Y-73779917D01*
X103933813Y-73829265D01*
X103938881Y-73830296D01*
X103938884Y-73830297D01*
X104047980Y-73852493D01*
X104156102Y-73874491D01*
X104161275Y-73874681D01*
X104161278Y-73874681D01*
X104377629Y-73882614D01*
X104377633Y-73882614D01*
X104382793Y-73882803D01*
X104387913Y-73882147D01*
X104387915Y-73882147D01*
X104493070Y-73868676D01*
X104607797Y-73853979D01*
X104612746Y-73852494D01*
X104612752Y-73852493D01*
X104739475Y-73814474D01*
X104825073Y-73788794D01*
X104879107Y-73762323D01*
X105024142Y-73691270D01*
X105028784Y-73688996D01*
X105032988Y-73685998D01*
X105032992Y-73685995D01*
X105177283Y-73583073D01*
X105213461Y-73557268D01*
X105374143Y-73397146D01*
X105431351Y-73317533D01*
X105503497Y-73217130D01*
X105506515Y-73212930D01*
X105607023Y-73009568D01*
X105672966Y-72792522D01*
X105686115Y-72692647D01*
X105702138Y-72570941D01*
X105702139Y-72570935D01*
X105702575Y-72567619D01*
X105704228Y-72500000D01*
X105685641Y-72273920D01*
X105630378Y-72053911D01*
X105546568Y-71861160D01*
X105541985Y-71850619D01*
X105541983Y-71850616D01*
X105539925Y-71845882D01*
X105416710Y-71655420D01*
X105402028Y-71639284D01*
X105267519Y-71491462D01*
X105267518Y-71491461D01*
X105264041Y-71487640D01*
X105259990Y-71484441D01*
X105259986Y-71484437D01*
X105090075Y-71350249D01*
X105090071Y-71350247D01*
X105086020Y-71347047D01*
X105079510Y-71343453D01*
X104981348Y-71289265D01*
X104887427Y-71237418D01*
X104882558Y-71235694D01*
X104882554Y-71235692D01*
X104678470Y-71163422D01*
X104678466Y-71163421D01*
X104673595Y-71161696D01*
X104668502Y-71160789D01*
X104668499Y-71160788D01*
X104455356Y-71122821D01*
X104455350Y-71122820D01*
X104450267Y-71121915D01*
X104376724Y-71121017D01*
X104228611Y-71119207D01*
X104228609Y-71119207D01*
X104223441Y-71119144D01*
X103999208Y-71153456D01*
X103884254Y-71191029D01*
X103788509Y-71222323D01*
X103788507Y-71222324D01*
X103783590Y-71223931D01*
X103779004Y-71226318D01*
X103779000Y-71226320D01*
X103613465Y-71312493D01*
X103582378Y-71328676D01*
X103578236Y-71331786D01*
X103412102Y-71456523D01*
X103400975Y-71464877D01*
X103244253Y-71628877D01*
X103241339Y-71633149D01*
X103241338Y-71633150D01*
X103119340Y-71811992D01*
X103119337Y-71811997D01*
X103116421Y-71816272D01*
X103020912Y-72022029D01*
X102960290Y-72240622D01*
X102936185Y-72466180D01*
X100254500Y-72466180D01*
X100254500Y-70515245D01*
X100274502Y-70447124D01*
X100328158Y-70400631D01*
X100398432Y-70390527D01*
X100463012Y-70420021D01*
X100497243Y-70467841D01*
X100544458Y-70584117D01*
X100662983Y-70777533D01*
X100811506Y-70948993D01*
X100986039Y-71093893D01*
X101181895Y-71208342D01*
X101186715Y-71210182D01*
X101186720Y-71210185D01*
X101274151Y-71243571D01*
X101393813Y-71289265D01*
X101398881Y-71290296D01*
X101398884Y-71290297D01*
X101507980Y-71312493D01*
X101616102Y-71334491D01*
X101621275Y-71334681D01*
X101621278Y-71334681D01*
X101837629Y-71342614D01*
X101837633Y-71342614D01*
X101842793Y-71342803D01*
X101847913Y-71342147D01*
X101847915Y-71342147D01*
X101928793Y-71331786D01*
X102067797Y-71313979D01*
X102072746Y-71312494D01*
X102072752Y-71312493D01*
X102211275Y-71270934D01*
X102285073Y-71248794D01*
X102295735Y-71243571D01*
X102484142Y-71151270D01*
X102488784Y-71148996D01*
X102492988Y-71145998D01*
X102492992Y-71145995D01*
X102582390Y-71082228D01*
X102673461Y-71017268D01*
X102834143Y-70857146D01*
X102891351Y-70777533D01*
X102963497Y-70677130D01*
X102966515Y-70672930D01*
X103067023Y-70469568D01*
X103132966Y-70252522D01*
X103146115Y-70152647D01*
X103162138Y-70030941D01*
X103162139Y-70030935D01*
X103162575Y-70027619D01*
X103163994Y-69969580D01*
X103164146Y-69963364D01*
X103164146Y-69963360D01*
X103164228Y-69960000D01*
X103161448Y-69926180D01*
X105476185Y-69926180D01*
X105476482Y-69931332D01*
X105476482Y-69931336D01*
X105482034Y-70027619D01*
X105489243Y-70152647D01*
X105490380Y-70157693D01*
X105490381Y-70157699D01*
X105510596Y-70247396D01*
X105539114Y-70373941D01*
X105541056Y-70378723D01*
X105541057Y-70378727D01*
X105575934Y-70464617D01*
X105624458Y-70584117D01*
X105742983Y-70777533D01*
X105891506Y-70948993D01*
X106066039Y-71093893D01*
X106261895Y-71208342D01*
X106266715Y-71210182D01*
X106266720Y-71210185D01*
X106354151Y-71243571D01*
X106473813Y-71289265D01*
X106478881Y-71290296D01*
X106478884Y-71290297D01*
X106587980Y-71312493D01*
X106696102Y-71334491D01*
X106701275Y-71334681D01*
X106701278Y-71334681D01*
X106917629Y-71342614D01*
X106917633Y-71342614D01*
X106922793Y-71342803D01*
X106927913Y-71342147D01*
X106927915Y-71342147D01*
X107008793Y-71331786D01*
X107147797Y-71313979D01*
X107152746Y-71312494D01*
X107152752Y-71312493D01*
X107291275Y-71270934D01*
X107365073Y-71248794D01*
X107375735Y-71243571D01*
X107564142Y-71151270D01*
X107568784Y-71148996D01*
X107572988Y-71145998D01*
X107572992Y-71145995D01*
X107662390Y-71082228D01*
X107753461Y-71017268D01*
X107914143Y-70857146D01*
X107971351Y-70777533D01*
X108043497Y-70677130D01*
X108046515Y-70672930D01*
X108147023Y-70469568D01*
X108212966Y-70252522D01*
X108226115Y-70152647D01*
X108242138Y-70030941D01*
X108242139Y-70030935D01*
X108242575Y-70027619D01*
X108243994Y-69969580D01*
X108244146Y-69963364D01*
X108244146Y-69963360D01*
X108244228Y-69960000D01*
X108225641Y-69733920D01*
X108180375Y-69553709D01*
X108171637Y-69518923D01*
X108171637Y-69518922D01*
X108170378Y-69513911D01*
X108079925Y-69305882D01*
X107956710Y-69115420D01*
X107929158Y-69085140D01*
X107807519Y-68951462D01*
X107807518Y-68951461D01*
X107804041Y-68947640D01*
X107799990Y-68944441D01*
X107799986Y-68944437D01*
X107630075Y-68810249D01*
X107630071Y-68810247D01*
X107626020Y-68807047D01*
X107427427Y-68697418D01*
X107422558Y-68695694D01*
X107422554Y-68695692D01*
X107218470Y-68623422D01*
X107218466Y-68623421D01*
X107213595Y-68621696D01*
X107208502Y-68620789D01*
X107208499Y-68620788D01*
X106995356Y-68582821D01*
X106995350Y-68582820D01*
X106990267Y-68581915D01*
X106916724Y-68581017D01*
X106768611Y-68579207D01*
X106768609Y-68579207D01*
X106763441Y-68579144D01*
X106539208Y-68613456D01*
X106388968Y-68662562D01*
X106328509Y-68682323D01*
X106328507Y-68682324D01*
X106323590Y-68683931D01*
X106319004Y-68686318D01*
X106319000Y-68686320D01*
X106292881Y-68699917D01*
X106122378Y-68788676D01*
X105940975Y-68924877D01*
X105784253Y-69088877D01*
X105781339Y-69093149D01*
X105781338Y-69093150D01*
X105659340Y-69271992D01*
X105659337Y-69271997D01*
X105656421Y-69276272D01*
X105560912Y-69482029D01*
X105500290Y-69700622D01*
X105476185Y-69926180D01*
X103161448Y-69926180D01*
X103145641Y-69733920D01*
X103100375Y-69553709D01*
X103091637Y-69518923D01*
X103091637Y-69518922D01*
X103090378Y-69513911D01*
X102999925Y-69305882D01*
X102876710Y-69115420D01*
X102849158Y-69085140D01*
X102727519Y-68951462D01*
X102727518Y-68951461D01*
X102724041Y-68947640D01*
X102719990Y-68944441D01*
X102719986Y-68944437D01*
X102550075Y-68810249D01*
X102550071Y-68810247D01*
X102546020Y-68807047D01*
X102347427Y-68697418D01*
X102342558Y-68695694D01*
X102342554Y-68695692D01*
X102138470Y-68623422D01*
X102138466Y-68623421D01*
X102133595Y-68621696D01*
X102128502Y-68620789D01*
X102128499Y-68620788D01*
X101915356Y-68582821D01*
X101915350Y-68582820D01*
X101910267Y-68581915D01*
X101836724Y-68581017D01*
X101688611Y-68579207D01*
X101688609Y-68579207D01*
X101683441Y-68579144D01*
X101459208Y-68613456D01*
X101308968Y-68662562D01*
X101248509Y-68682323D01*
X101248507Y-68682324D01*
X101243590Y-68683931D01*
X101239004Y-68686318D01*
X101239000Y-68686320D01*
X101212881Y-68699917D01*
X101042378Y-68788676D01*
X100860975Y-68924877D01*
X100704253Y-69088877D01*
X100701339Y-69093149D01*
X100701338Y-69093150D01*
X100579340Y-69271992D01*
X100579337Y-69271997D01*
X100576421Y-69276272D01*
X100574242Y-69280967D01*
X100494788Y-69452136D01*
X100447964Y-69505503D01*
X100379721Y-69525084D01*
X100311725Y-69504661D01*
X100265565Y-69450718D01*
X100254500Y-69399086D01*
X100254500Y-57300000D01*
X109340708Y-57300000D01*
X109359839Y-57518674D01*
X109416653Y-57730703D01*
X109443213Y-57787662D01*
X109507095Y-57924659D01*
X109507098Y-57924664D01*
X109509421Y-57929646D01*
X109512575Y-57934150D01*
X109512578Y-57934155D01*
X109596985Y-58054700D01*
X109635326Y-58109457D01*
X109790543Y-58264674D01*
X109795051Y-58267831D01*
X109795054Y-58267833D01*
X109965845Y-58387422D01*
X109970354Y-58390579D01*
X109975336Y-58392902D01*
X109975341Y-58392905D01*
X110052656Y-58428957D01*
X110169297Y-58483347D01*
X110381326Y-58540161D01*
X110600000Y-58559292D01*
X110818674Y-58540161D01*
X111030703Y-58483347D01*
X111147344Y-58428957D01*
X111224659Y-58392905D01*
X111224664Y-58392902D01*
X111229646Y-58390579D01*
X111234155Y-58387422D01*
X111404946Y-58267833D01*
X111404949Y-58267831D01*
X111409457Y-58264674D01*
X111564674Y-58109457D01*
X111603039Y-58054667D01*
X111658201Y-57975886D01*
X111690579Y-57929646D01*
X111715012Y-57877249D01*
X111761928Y-57823965D01*
X111829206Y-57804500D01*
X119652074Y-57804500D01*
X119718226Y-57824284D01*
X119720170Y-57826001D01*
X119728292Y-57829814D01*
X119731099Y-57831658D01*
X119745103Y-57840072D01*
X119748052Y-57841686D01*
X119755235Y-57847070D01*
X119784548Y-57858059D01*
X119799174Y-57863542D01*
X119808494Y-57867469D01*
X119815977Y-57870982D01*
X119850982Y-57887417D01*
X119859853Y-57888798D01*
X119863075Y-57889783D01*
X119878846Y-57893920D01*
X119882140Y-57894644D01*
X119890552Y-57897798D01*
X119899510Y-57898464D01*
X119899511Y-57898464D01*
X119937350Y-57901276D01*
X119947374Y-57902426D01*
X119960697Y-57904500D01*
X119976062Y-57904500D01*
X119985399Y-57904846D01*
X120034666Y-57908507D01*
X120043441Y-57906634D01*
X120052137Y-57906041D01*
X120066737Y-57904500D01*
X122038839Y-57904500D01*
X122106960Y-57924502D01*
X122127934Y-57941405D01*
X140017024Y-75830494D01*
X140051050Y-75892806D01*
X140053168Y-75905762D01*
X140057036Y-75940794D01*
X140058113Y-75950553D01*
X140060723Y-75957684D01*
X140060723Y-75957686D01*
X140104640Y-76077695D01*
X140112553Y-76099319D01*
X140116789Y-76105622D01*
X140116789Y-76105623D01*
X140164419Y-76176503D01*
X140200908Y-76230805D01*
X140206527Y-76235918D01*
X140206528Y-76235919D01*
X140264141Y-76288342D01*
X140318076Y-76337419D01*
X140457293Y-76413008D01*
X140610522Y-76453207D01*
X140694477Y-76454526D01*
X140761319Y-76455576D01*
X140761322Y-76455576D01*
X140768916Y-76455695D01*
X140923332Y-76420329D01*
X141022089Y-76370660D01*
X141058072Y-76352563D01*
X141058075Y-76352561D01*
X141064855Y-76349151D01*
X141070626Y-76344222D01*
X141070629Y-76344220D01*
X141179536Y-76251204D01*
X141179536Y-76251203D01*
X141185314Y-76246269D01*
X141277755Y-76117624D01*
X141336842Y-75970641D01*
X141351575Y-75867120D01*
X141358581Y-75817891D01*
X141358581Y-75817888D01*
X141359162Y-75813807D01*
X141359307Y-75800000D01*
X141340276Y-75642733D01*
X141284280Y-75494546D01*
X141263281Y-75463992D01*
X141198855Y-75370251D01*
X141198854Y-75370249D01*
X141194553Y-75363992D01*
X141188514Y-75358611D01*
X141112979Y-75291313D01*
X141076275Y-75258611D01*
X141068889Y-75254700D01*
X140942988Y-75188039D01*
X140942989Y-75188039D01*
X140936274Y-75184484D01*
X140928911Y-75182635D01*
X140928907Y-75182633D01*
X140785332Y-75146570D01*
X140726932Y-75113461D01*
X122706677Y-57093206D01*
X122699135Y-57083766D01*
X122698755Y-57084089D01*
X122692937Y-57077253D01*
X122688147Y-57069661D01*
X122648140Y-57034328D01*
X122642454Y-57028983D01*
X122631120Y-57017649D01*
X122622845Y-57011447D01*
X122615000Y-57005060D01*
X122586557Y-56979940D01*
X122579830Y-56973999D01*
X122571708Y-56970186D01*
X122568907Y-56968346D01*
X122554912Y-56959937D01*
X122551949Y-56958315D01*
X122544764Y-56952930D01*
X122536354Y-56949777D01*
X122536352Y-56949776D01*
X122500818Y-56936454D01*
X122491502Y-56932529D01*
X122449018Y-56912583D01*
X122440144Y-56911201D01*
X122436917Y-56910215D01*
X122421134Y-56906075D01*
X122417856Y-56905354D01*
X122409448Y-56902202D01*
X122395691Y-56901180D01*
X122362643Y-56898724D01*
X122352596Y-56897570D01*
X122344114Y-56896249D01*
X122344111Y-56896249D01*
X122339303Y-56895500D01*
X122323938Y-56895500D01*
X122314601Y-56895154D01*
X122298519Y-56893959D01*
X122265333Y-56891493D01*
X122256558Y-56893366D01*
X122247862Y-56893959D01*
X122233262Y-56895500D01*
X120247926Y-56895500D01*
X120181774Y-56875716D01*
X120179830Y-56873999D01*
X120171709Y-56870186D01*
X120168912Y-56868349D01*
X120154912Y-56859937D01*
X120151949Y-56858315D01*
X120144764Y-56852930D01*
X120136354Y-56849777D01*
X120136352Y-56849776D01*
X120100818Y-56836454D01*
X120091502Y-56832529D01*
X120088533Y-56831135D01*
X120049018Y-56812583D01*
X120040144Y-56811201D01*
X120036917Y-56810215D01*
X120021134Y-56806075D01*
X120017856Y-56805354D01*
X120009448Y-56802202D01*
X119995691Y-56801180D01*
X119962643Y-56798724D01*
X119952596Y-56797570D01*
X119944114Y-56796249D01*
X119944111Y-56796249D01*
X119939303Y-56795500D01*
X119923938Y-56795500D01*
X119914601Y-56795154D01*
X119898519Y-56793959D01*
X119865333Y-56791493D01*
X119856558Y-56793366D01*
X119847862Y-56793959D01*
X119833262Y-56795500D01*
X111829206Y-56795500D01*
X111761085Y-56775498D01*
X111715011Y-56722750D01*
X111692901Y-56675334D01*
X111690579Y-56670354D01*
X111564674Y-56490543D01*
X111409457Y-56335326D01*
X111404949Y-56332169D01*
X111404946Y-56332167D01*
X111234155Y-56212578D01*
X111234153Y-56212577D01*
X111229646Y-56209421D01*
X111224664Y-56207098D01*
X111224659Y-56207095D01*
X111081230Y-56140214D01*
X111030703Y-56116653D01*
X110818674Y-56059839D01*
X110600000Y-56040708D01*
X110381326Y-56059839D01*
X110169297Y-56116653D01*
X110118770Y-56140214D01*
X109975341Y-56207095D01*
X109975336Y-56207098D01*
X109970354Y-56209421D01*
X109965847Y-56212577D01*
X109965845Y-56212578D01*
X109795054Y-56332167D01*
X109795051Y-56332169D01*
X109790543Y-56335326D01*
X109635326Y-56490543D01*
X109632169Y-56495051D01*
X109632167Y-56495054D01*
X109551129Y-56610789D01*
X109509421Y-56670354D01*
X109507099Y-56675334D01*
X109507095Y-56675341D01*
X109466375Y-56762667D01*
X109416653Y-56869297D01*
X109359839Y-57081326D01*
X109340708Y-57300000D01*
X100254500Y-57300000D01*
X100254500Y-55400000D01*
X102740793Y-55400000D01*
X102759569Y-55578639D01*
X102761609Y-55584917D01*
X102761609Y-55584918D01*
X102809920Y-55733604D01*
X102815075Y-55749471D01*
X102818378Y-55755193D01*
X102818379Y-55755194D01*
X102840893Y-55794189D01*
X102904887Y-55905029D01*
X102909305Y-55909936D01*
X102909306Y-55909937D01*
X102977078Y-55985206D01*
X103025078Y-56038515D01*
X103030420Y-56042396D01*
X103030422Y-56042398D01*
X103165054Y-56140214D01*
X103170396Y-56144095D01*
X103176424Y-56146779D01*
X103176426Y-56146780D01*
X103311897Y-56207095D01*
X103334490Y-56217154D01*
X103417286Y-56234753D01*
X103503731Y-56253128D01*
X103503736Y-56253128D01*
X103510188Y-56254500D01*
X103689812Y-56254500D01*
X103696264Y-56253128D01*
X103696269Y-56253128D01*
X103782714Y-56234753D01*
X103865510Y-56217154D01*
X103888103Y-56207095D01*
X104023574Y-56146780D01*
X104023576Y-56146779D01*
X104029604Y-56144095D01*
X104034946Y-56140214D01*
X104169578Y-56042398D01*
X104169580Y-56042396D01*
X104174922Y-56038515D01*
X104222922Y-55985206D01*
X104290694Y-55909937D01*
X104290695Y-55909936D01*
X104295113Y-55905029D01*
X104359107Y-55794189D01*
X104381621Y-55755194D01*
X104381622Y-55755193D01*
X104384925Y-55749471D01*
X104390081Y-55733604D01*
X104438391Y-55584918D01*
X104438391Y-55584917D01*
X104440431Y-55578639D01*
X104459207Y-55400000D01*
X104740793Y-55400000D01*
X104759569Y-55578639D01*
X104761609Y-55584917D01*
X104761609Y-55584918D01*
X104809920Y-55733604D01*
X104815075Y-55749471D01*
X104818378Y-55755193D01*
X104818379Y-55755194D01*
X104840893Y-55794189D01*
X104904887Y-55905029D01*
X104909305Y-55909936D01*
X104909306Y-55909937D01*
X104977078Y-55985206D01*
X105025078Y-56038515D01*
X105030420Y-56042396D01*
X105030422Y-56042398D01*
X105165054Y-56140214D01*
X105170396Y-56144095D01*
X105176424Y-56146779D01*
X105176426Y-56146780D01*
X105311897Y-56207095D01*
X105334490Y-56217154D01*
X105417286Y-56234753D01*
X105503731Y-56253128D01*
X105503736Y-56253128D01*
X105510188Y-56254500D01*
X105689812Y-56254500D01*
X105696264Y-56253128D01*
X105696269Y-56253128D01*
X105782714Y-56234753D01*
X105865510Y-56217154D01*
X105888103Y-56207095D01*
X106023574Y-56146780D01*
X106023576Y-56146779D01*
X106029604Y-56144095D01*
X106034946Y-56140214D01*
X106169578Y-56042398D01*
X106169580Y-56042396D01*
X106174922Y-56038515D01*
X106222922Y-55985206D01*
X106290694Y-55909937D01*
X106290695Y-55909936D01*
X106295113Y-55905029D01*
X106359107Y-55794189D01*
X106381621Y-55755194D01*
X106381622Y-55755193D01*
X106384925Y-55749471D01*
X106390081Y-55733604D01*
X106438391Y-55584918D01*
X106438391Y-55584917D01*
X106440431Y-55578639D01*
X106459207Y-55400000D01*
X106440431Y-55221361D01*
X106384925Y-55050529D01*
X106371244Y-55026832D01*
X106334887Y-54963862D01*
X106295113Y-54894971D01*
X106174922Y-54761485D01*
X106159843Y-54750529D01*
X106034946Y-54659786D01*
X106034945Y-54659785D01*
X106029604Y-54655905D01*
X106023576Y-54653221D01*
X106023574Y-54653220D01*
X105871541Y-54585531D01*
X105871540Y-54585531D01*
X105865510Y-54582846D01*
X105777661Y-54564173D01*
X105696269Y-54546872D01*
X105696264Y-54546872D01*
X105689812Y-54545500D01*
X105510188Y-54545500D01*
X105503736Y-54546872D01*
X105503731Y-54546872D01*
X105422339Y-54564173D01*
X105334490Y-54582846D01*
X105328460Y-54585531D01*
X105328459Y-54585531D01*
X105176427Y-54653220D01*
X105176425Y-54653221D01*
X105170397Y-54655905D01*
X105165056Y-54659785D01*
X105165055Y-54659786D01*
X105030422Y-54757602D01*
X105030420Y-54757604D01*
X105025078Y-54761485D01*
X104904887Y-54894971D01*
X104865113Y-54963862D01*
X104828757Y-55026832D01*
X104815075Y-55050529D01*
X104759569Y-55221361D01*
X104740793Y-55400000D01*
X104459207Y-55400000D01*
X104440431Y-55221361D01*
X104384925Y-55050529D01*
X104371244Y-55026832D01*
X104334887Y-54963862D01*
X104295113Y-54894971D01*
X104174922Y-54761485D01*
X104159843Y-54750529D01*
X104034946Y-54659786D01*
X104034945Y-54659785D01*
X104029604Y-54655905D01*
X104023576Y-54653221D01*
X104023574Y-54653220D01*
X103871541Y-54585531D01*
X103871540Y-54585531D01*
X103865510Y-54582846D01*
X103777661Y-54564173D01*
X103696269Y-54546872D01*
X103696264Y-54546872D01*
X103689812Y-54545500D01*
X103510188Y-54545500D01*
X103503736Y-54546872D01*
X103503731Y-54546872D01*
X103422339Y-54564173D01*
X103334490Y-54582846D01*
X103328460Y-54585531D01*
X103328459Y-54585531D01*
X103176427Y-54653220D01*
X103176425Y-54653221D01*
X103170397Y-54655905D01*
X103165056Y-54659785D01*
X103165055Y-54659786D01*
X103030422Y-54757602D01*
X103030420Y-54757604D01*
X103025078Y-54761485D01*
X102904887Y-54894971D01*
X102865113Y-54963862D01*
X102828757Y-55026832D01*
X102815075Y-55050529D01*
X102759569Y-55221361D01*
X102740793Y-55400000D01*
X100254500Y-55400000D01*
X100254500Y-53600000D01*
X109240708Y-53600000D01*
X109259839Y-53818674D01*
X109316653Y-54030703D01*
X109351065Y-54104500D01*
X109407095Y-54224659D01*
X109407098Y-54224664D01*
X109409421Y-54229646D01*
X109535326Y-54409457D01*
X109690543Y-54564674D01*
X109695051Y-54567831D01*
X109695054Y-54567833D01*
X109820834Y-54655905D01*
X109870354Y-54690579D01*
X109875336Y-54692902D01*
X109875341Y-54692905D01*
X109976116Y-54739896D01*
X110069297Y-54783347D01*
X110281326Y-54840161D01*
X110500000Y-54859292D01*
X110718674Y-54840161D01*
X110930703Y-54783347D01*
X111023884Y-54739896D01*
X111124659Y-54692905D01*
X111124664Y-54692902D01*
X111129646Y-54690579D01*
X111179166Y-54655905D01*
X111304946Y-54567833D01*
X111304949Y-54567831D01*
X111309457Y-54564674D01*
X111464674Y-54409457D01*
X111590579Y-54229646D01*
X111592902Y-54224664D01*
X111592905Y-54224659D01*
X111661642Y-54077250D01*
X111708559Y-54023965D01*
X111775837Y-54004500D01*
X119584054Y-54004500D01*
X119652175Y-54024502D01*
X119653054Y-54025103D01*
X119659277Y-54031326D01*
X119668110Y-54035827D01*
X119668112Y-54035828D01*
X119673637Y-54038643D01*
X119679164Y-54041459D01*
X119696022Y-54051791D01*
X119714071Y-54064904D01*
X119723506Y-54067969D01*
X119723507Y-54067970D01*
X119735296Y-54071801D01*
X119753560Y-54079366D01*
X119773445Y-54089498D01*
X119794969Y-54092907D01*
X119795493Y-54092990D01*
X119814718Y-54097606D01*
X119824133Y-54100665D01*
X119835934Y-54104499D01*
X119868162Y-54104499D01*
X119868166Y-54104500D01*
X121680260Y-54104500D01*
X121748381Y-54124502D01*
X121769355Y-54141405D01*
X143406135Y-75778185D01*
X143440161Y-75840497D01*
X143441723Y-75877967D01*
X143441800Y-75877968D01*
X143441785Y-75879440D01*
X143441963Y-75883720D01*
X143441720Y-75885563D01*
X143441720Y-75885569D01*
X143440729Y-75893096D01*
X143445995Y-75940794D01*
X143455733Y-76028993D01*
X143458113Y-76050553D01*
X143460723Y-76057684D01*
X143460723Y-76057686D01*
X143504204Y-76176503D01*
X143512553Y-76199319D01*
X143516789Y-76205622D01*
X143516789Y-76205623D01*
X143530479Y-76225995D01*
X143600908Y-76330805D01*
X143606527Y-76335918D01*
X143606528Y-76335919D01*
X143670336Y-76393979D01*
X143718076Y-76437419D01*
X143857293Y-76513008D01*
X144010522Y-76553207D01*
X144094477Y-76554526D01*
X144161319Y-76555576D01*
X144161322Y-76555576D01*
X144168916Y-76555695D01*
X144323332Y-76520329D01*
X144394298Y-76484637D01*
X144458072Y-76452563D01*
X144458075Y-76452561D01*
X144464855Y-76449151D01*
X144470626Y-76444222D01*
X144470629Y-76444220D01*
X144579536Y-76351204D01*
X144579536Y-76351203D01*
X144585314Y-76346269D01*
X144677755Y-76217624D01*
X144736842Y-76070641D01*
X144747546Y-75995430D01*
X144758581Y-75917891D01*
X144758581Y-75917888D01*
X144759162Y-75913807D01*
X144759231Y-75907265D01*
X144759264Y-75904134D01*
X144759264Y-75904128D01*
X144759307Y-75900000D01*
X144758437Y-75892806D01*
X144748877Y-75813807D01*
X144740276Y-75742733D01*
X144684280Y-75594546D01*
X144656558Y-75554210D01*
X144598855Y-75470251D01*
X144598854Y-75470249D01*
X144594553Y-75463992D01*
X144476275Y-75358611D01*
X144336274Y-75284484D01*
X144182633Y-75245892D01*
X144175034Y-75245852D01*
X144175033Y-75245852D01*
X144079292Y-75245351D01*
X144068878Y-75245296D01*
X144000863Y-75224938D01*
X143980443Y-75208393D01*
X127365146Y-58593096D01*
X146740729Y-58593096D01*
X146758113Y-58750553D01*
X146760723Y-58757684D01*
X146760723Y-58757686D01*
X146764730Y-58768634D01*
X146812553Y-58899319D01*
X146816789Y-58905622D01*
X146816789Y-58905623D01*
X146874082Y-58990884D01*
X146895500Y-59061160D01*
X146895500Y-59129376D01*
X146894159Y-59141381D01*
X146894655Y-59141421D01*
X146893935Y-59150368D01*
X146891954Y-59159124D01*
X146892510Y-59168084D01*
X146895258Y-59212382D01*
X146895500Y-59220184D01*
X146895500Y-59236226D01*
X146896135Y-59240657D01*
X146896135Y-59240662D01*
X146896965Y-59246453D01*
X146897996Y-59256514D01*
X146900902Y-59303359D01*
X146903949Y-59311799D01*
X146904630Y-59315089D01*
X146908582Y-59330938D01*
X146909527Y-59334168D01*
X146910799Y-59343052D01*
X146914514Y-59351223D01*
X146930218Y-59385763D01*
X146934030Y-59395128D01*
X146946922Y-59430837D01*
X146946924Y-59430840D01*
X146949972Y-59439284D01*
X146955268Y-59446533D01*
X146956840Y-59449490D01*
X146965093Y-59463614D01*
X146966898Y-59466437D01*
X146970612Y-59474605D01*
X146976469Y-59481402D01*
X146976470Y-59481404D01*
X147001243Y-59510153D01*
X147007525Y-59518064D01*
X147015473Y-59528944D01*
X147026335Y-59539806D01*
X147032693Y-59546652D01*
X147064944Y-59584082D01*
X147072479Y-59588966D01*
X147079051Y-59594699D01*
X147090455Y-59603926D01*
X149693322Y-62206792D01*
X149700867Y-62216235D01*
X149701246Y-62215912D01*
X149707062Y-62222745D01*
X149711853Y-62230339D01*
X149718583Y-62236283D01*
X149718585Y-62236285D01*
X149751866Y-62265678D01*
X149757554Y-62271024D01*
X149768881Y-62282351D01*
X149772464Y-62285036D01*
X149772466Y-62285038D01*
X149777152Y-62288550D01*
X149784995Y-62294935D01*
X149820170Y-62326001D01*
X149828297Y-62329816D01*
X149831117Y-62331669D01*
X149845113Y-62340078D01*
X149848054Y-62341688D01*
X149855236Y-62347071D01*
X149863640Y-62350222D01*
X149863641Y-62350222D01*
X149899178Y-62363544D01*
X149908492Y-62367468D01*
X149950982Y-62387417D01*
X149959853Y-62388798D01*
X149963075Y-62389783D01*
X149978858Y-62393923D01*
X149982142Y-62394645D01*
X149990552Y-62397798D01*
X150037357Y-62401276D01*
X150047397Y-62402429D01*
X150053666Y-62403405D01*
X150055886Y-62403751D01*
X150055887Y-62403751D01*
X150060697Y-62404500D01*
X150076066Y-62404500D01*
X150085404Y-62404847D01*
X150125716Y-62407843D01*
X150125717Y-62407843D01*
X150134667Y-62408508D01*
X150143442Y-62406635D01*
X150152126Y-62406043D01*
X150166742Y-62404500D01*
X150933153Y-62404500D01*
X151001274Y-62424502D01*
X151006068Y-62428185D01*
X151006266Y-62427907D01*
X151012459Y-62432308D01*
X151018076Y-62437419D01*
X151157293Y-62513008D01*
X151310522Y-62553207D01*
X151394477Y-62554526D01*
X151461319Y-62555576D01*
X151461322Y-62555576D01*
X151468916Y-62555695D01*
X151623332Y-62520329D01*
X151693742Y-62484917D01*
X151758072Y-62452563D01*
X151758075Y-62452561D01*
X151764855Y-62449151D01*
X151770626Y-62444222D01*
X151770629Y-62444220D01*
X151879536Y-62351204D01*
X151879536Y-62351203D01*
X151885314Y-62346269D01*
X151977755Y-62217624D01*
X152036842Y-62070641D01*
X152053998Y-61950091D01*
X152058581Y-61917891D01*
X152058581Y-61917888D01*
X152059162Y-61913807D01*
X152059307Y-61900000D01*
X152040276Y-61742733D01*
X151984280Y-61594546D01*
X151977748Y-61585042D01*
X151898855Y-61470251D01*
X151898854Y-61470249D01*
X151894553Y-61463992D01*
X151776275Y-61358611D01*
X151768889Y-61354700D01*
X151753443Y-61346522D01*
X160917273Y-61346522D01*
X160964764Y-61523761D01*
X160968510Y-61534053D01*
X161060586Y-61731511D01*
X161066069Y-61741007D01*
X161191028Y-61919467D01*
X161198084Y-61927875D01*
X161352125Y-62081916D01*
X161360533Y-62088972D01*
X161538993Y-62213931D01*
X161548489Y-62219414D01*
X161745947Y-62311490D01*
X161756239Y-62315236D01*
X161921015Y-62359387D01*
X161981638Y-62396339D01*
X162012659Y-62460199D01*
X162004231Y-62530694D01*
X161959028Y-62585441D01*
X161923978Y-62601967D01*
X161803066Y-62637554D01*
X161797601Y-62640411D01*
X161625261Y-62730508D01*
X161625257Y-62730511D01*
X161619801Y-62733363D01*
X161458635Y-62862943D01*
X161325708Y-63021360D01*
X161226082Y-63202578D01*
X161163553Y-63399696D01*
X161140501Y-63605206D01*
X161157806Y-63811278D01*
X161214807Y-64010066D01*
X161217625Y-64015548D01*
X161217626Y-64015552D01*
X161306514Y-64188509D01*
X161306517Y-64188513D01*
X161309334Y-64193995D01*
X161437786Y-64356061D01*
X161595271Y-64490091D01*
X161600648Y-64493096D01*
X161600652Y-64493099D01*
X161630970Y-64510043D01*
X161680676Y-64560736D01*
X161695500Y-64620031D01*
X161695500Y-71329376D01*
X161694159Y-71341381D01*
X161694655Y-71341421D01*
X161693935Y-71350368D01*
X161691954Y-71359124D01*
X161695258Y-71412382D01*
X161695500Y-71420184D01*
X161695500Y-71436226D01*
X161696135Y-71440657D01*
X161696135Y-71440662D01*
X161696965Y-71446453D01*
X161697996Y-71456514D01*
X161700902Y-71503359D01*
X161703949Y-71511799D01*
X161704630Y-71515089D01*
X161708582Y-71530938D01*
X161709527Y-71534168D01*
X161710799Y-71543052D01*
X161714514Y-71551223D01*
X161730218Y-71585763D01*
X161734030Y-71595128D01*
X161746922Y-71630837D01*
X161746924Y-71630840D01*
X161749972Y-71639284D01*
X161755268Y-71646533D01*
X161756840Y-71649490D01*
X161765093Y-71663614D01*
X161766898Y-71666437D01*
X161770612Y-71674605D01*
X161797340Y-71705623D01*
X161801243Y-71710153D01*
X161807525Y-71718064D01*
X161815473Y-71728944D01*
X161826335Y-71739806D01*
X161832693Y-71746652D01*
X161864944Y-71784082D01*
X161872479Y-71788966D01*
X161879051Y-71794699D01*
X161890455Y-71803926D01*
X168273491Y-78186962D01*
X168307517Y-78249274D01*
X168306103Y-78308669D01*
X168259839Y-78481326D01*
X168240708Y-78700000D01*
X168259839Y-78918674D01*
X168316653Y-79130703D01*
X168355046Y-79213038D01*
X168407095Y-79324659D01*
X168407098Y-79324664D01*
X168409421Y-79329646D01*
X168535326Y-79509457D01*
X168690543Y-79664674D01*
X168695051Y-79667831D01*
X168695054Y-79667833D01*
X168865845Y-79787422D01*
X168870354Y-79790579D01*
X168875336Y-79792902D01*
X168875341Y-79792905D01*
X168976116Y-79839896D01*
X169069297Y-79883347D01*
X169281326Y-79940161D01*
X169500000Y-79959292D01*
X169718674Y-79940161D01*
X169891331Y-79893897D01*
X169962308Y-79895587D01*
X170013038Y-79926509D01*
X171258595Y-81172066D01*
X171292621Y-81234378D01*
X171295500Y-81261161D01*
X171295500Y-83929376D01*
X171294159Y-83941381D01*
X171294655Y-83941421D01*
X171293935Y-83950368D01*
X171291954Y-83959124D01*
X171292510Y-83968084D01*
X171295258Y-84012382D01*
X171295500Y-84020184D01*
X171295500Y-84036226D01*
X171296135Y-84040657D01*
X171296135Y-84040662D01*
X171296965Y-84046453D01*
X171297997Y-84056523D01*
X171300195Y-84091954D01*
X171300902Y-84103359D01*
X171303949Y-84111799D01*
X171304630Y-84115089D01*
X171308582Y-84130938D01*
X171309527Y-84134168D01*
X171310799Y-84143052D01*
X171314514Y-84151223D01*
X171330218Y-84185763D01*
X171334030Y-84195128D01*
X171346922Y-84230837D01*
X171346924Y-84230840D01*
X171349972Y-84239284D01*
X171355268Y-84246533D01*
X171356840Y-84249490D01*
X171365093Y-84263614D01*
X171366898Y-84266437D01*
X171370612Y-84274605D01*
X171376469Y-84281402D01*
X171376470Y-84281404D01*
X171401243Y-84310153D01*
X171407525Y-84318064D01*
X171415473Y-84328944D01*
X171426335Y-84339806D01*
X171432693Y-84346652D01*
X171464944Y-84384082D01*
X171472479Y-84388966D01*
X171479051Y-84394699D01*
X171490455Y-84403926D01*
X172373491Y-85286962D01*
X172407517Y-85349274D01*
X172406103Y-85408669D01*
X172398412Y-85437373D01*
X172359839Y-85581326D01*
X172340708Y-85800000D01*
X172359839Y-86018674D01*
X172416653Y-86230703D01*
X172460104Y-86323884D01*
X172507095Y-86424659D01*
X172507098Y-86424664D01*
X172509421Y-86429646D01*
X172512577Y-86434153D01*
X172512578Y-86434155D01*
X172616215Y-86582163D01*
X172635326Y-86609457D01*
X172790543Y-86764674D01*
X172795051Y-86767831D01*
X172795054Y-86767833D01*
X172928485Y-86861262D01*
X172970354Y-86890579D01*
X172975336Y-86892902D01*
X172975341Y-86892905D01*
X173026270Y-86916653D01*
X173169297Y-86983347D01*
X173381326Y-87040161D01*
X173600000Y-87059292D01*
X173818674Y-87040161D01*
X174030703Y-86983347D01*
X174173730Y-86916653D01*
X174224659Y-86892905D01*
X174224664Y-86892902D01*
X174229646Y-86890579D01*
X174271515Y-86861262D01*
X174404946Y-86767833D01*
X174404949Y-86767831D01*
X174409457Y-86764674D01*
X174564674Y-86609457D01*
X174583786Y-86582163D01*
X174687422Y-86434155D01*
X174687423Y-86434153D01*
X174690579Y-86429646D01*
X174692902Y-86424664D01*
X174692905Y-86424659D01*
X174739896Y-86323884D01*
X174783347Y-86230703D01*
X174840161Y-86018674D01*
X174850112Y-85904930D01*
X176087725Y-85904930D01*
X176105572Y-86131699D01*
X176107115Y-86141446D01*
X176160217Y-86362627D01*
X176163266Y-86372012D01*
X176250313Y-86582163D01*
X176254795Y-86590958D01*
X176357432Y-86758445D01*
X176367890Y-86767907D01*
X176376666Y-86764124D01*
X177227978Y-85912812D01*
X177234356Y-85901132D01*
X177964408Y-85901132D01*
X177964539Y-85902965D01*
X177968790Y-85909580D01*
X178820290Y-86761080D01*
X178832670Y-86767840D01*
X178840320Y-86762113D01*
X178945205Y-86590958D01*
X178949687Y-86582163D01*
X179036734Y-86372012D01*
X179039783Y-86362627D01*
X179092885Y-86141446D01*
X179094428Y-86131699D01*
X179112275Y-85904930D01*
X179112275Y-85895070D01*
X179094428Y-85668301D01*
X179092885Y-85658554D01*
X179039783Y-85437373D01*
X179036734Y-85427988D01*
X178949687Y-85217837D01*
X178945205Y-85209042D01*
X178842568Y-85041555D01*
X178832110Y-85032093D01*
X178823334Y-85035876D01*
X177972022Y-85887188D01*
X177964408Y-85901132D01*
X177234356Y-85901132D01*
X177235592Y-85898868D01*
X177235461Y-85897035D01*
X177231210Y-85890420D01*
X176379710Y-85038920D01*
X176367330Y-85032160D01*
X176359680Y-85037887D01*
X176254795Y-85209042D01*
X176250313Y-85217837D01*
X176163266Y-85427988D01*
X176160217Y-85437373D01*
X176107115Y-85658554D01*
X176105572Y-85668301D01*
X176087725Y-85895070D01*
X176087725Y-85904930D01*
X174850112Y-85904930D01*
X174859292Y-85800000D01*
X174840161Y-85581326D01*
X174783347Y-85369297D01*
X174712721Y-85217837D01*
X174692905Y-85175341D01*
X174692902Y-85175336D01*
X174690579Y-85170354D01*
X174670309Y-85141405D01*
X174567833Y-84995054D01*
X174567831Y-84995051D01*
X174564674Y-84990543D01*
X174409457Y-84835326D01*
X174404949Y-84832169D01*
X174404946Y-84832167D01*
X174234155Y-84712578D01*
X174234153Y-84712577D01*
X174229646Y-84709421D01*
X174224664Y-84707098D01*
X174224659Y-84707095D01*
X174140582Y-84667890D01*
X176732093Y-84667890D01*
X176735876Y-84676666D01*
X177587188Y-85527978D01*
X177601132Y-85535592D01*
X177602965Y-85535461D01*
X177609580Y-85531210D01*
X178461080Y-84679710D01*
X178467840Y-84667330D01*
X178462113Y-84659680D01*
X178290958Y-84554795D01*
X178282163Y-84550313D01*
X178072012Y-84463266D01*
X178062627Y-84460217D01*
X177841446Y-84407115D01*
X177831699Y-84405572D01*
X177604930Y-84387725D01*
X177595070Y-84387725D01*
X177368301Y-84405572D01*
X177358554Y-84407115D01*
X177137373Y-84460217D01*
X177127988Y-84463266D01*
X176917837Y-84550313D01*
X176909042Y-84554795D01*
X176741555Y-84657432D01*
X176732093Y-84667890D01*
X174140582Y-84667890D01*
X174057419Y-84629111D01*
X174030703Y-84616653D01*
X173818674Y-84559839D01*
X173600000Y-84540708D01*
X173381326Y-84559839D01*
X173208669Y-84606103D01*
X173137692Y-84604413D01*
X173086961Y-84573491D01*
X172721006Y-84207535D01*
X172341404Y-83827933D01*
X172307379Y-83765621D01*
X172304500Y-83738838D01*
X172304500Y-82436610D01*
X172324502Y-82368489D01*
X172378158Y-82321996D01*
X172448432Y-82311892D01*
X172513012Y-82341386D01*
X172533713Y-82364339D01*
X172578274Y-82427978D01*
X172635326Y-82509457D01*
X172790543Y-82664674D01*
X172795051Y-82667831D01*
X172795054Y-82667833D01*
X172965511Y-82787188D01*
X172970354Y-82790579D01*
X172975336Y-82792902D01*
X172975341Y-82792905D01*
X173076116Y-82839896D01*
X173169297Y-82883347D01*
X173381326Y-82940161D01*
X173600000Y-82959292D01*
X173818674Y-82940161D01*
X173846630Y-82932670D01*
X176832160Y-82932670D01*
X176837887Y-82940320D01*
X177009042Y-83045205D01*
X177017837Y-83049687D01*
X177227988Y-83136734D01*
X177237373Y-83139783D01*
X177458554Y-83192885D01*
X177468301Y-83194428D01*
X177695070Y-83212275D01*
X177704930Y-83212275D01*
X177931699Y-83194428D01*
X177941446Y-83192885D01*
X178162627Y-83139783D01*
X178172012Y-83136734D01*
X178382163Y-83049687D01*
X178390958Y-83045205D01*
X178558445Y-82942568D01*
X178567907Y-82932110D01*
X178564124Y-82923334D01*
X177712812Y-82072022D01*
X177698868Y-82064408D01*
X177697035Y-82064539D01*
X177690420Y-82068790D01*
X176838920Y-82920290D01*
X176832160Y-82932670D01*
X173846630Y-82932670D01*
X174030703Y-82883347D01*
X174123884Y-82839896D01*
X174224659Y-82792905D01*
X174224664Y-82792902D01*
X174229646Y-82790579D01*
X174234489Y-82787188D01*
X174404946Y-82667833D01*
X174404949Y-82667831D01*
X174409457Y-82664674D01*
X174564674Y-82509457D01*
X174621727Y-82427978D01*
X174687422Y-82334155D01*
X174687423Y-82334153D01*
X174690579Y-82329646D01*
X174692902Y-82324664D01*
X174692905Y-82324659D01*
X174764084Y-82172012D01*
X174783347Y-82130703D01*
X174840161Y-81918674D01*
X174858861Y-81704930D01*
X176187725Y-81704930D01*
X176205572Y-81931699D01*
X176207115Y-81941446D01*
X176260217Y-82162627D01*
X176263266Y-82172012D01*
X176350313Y-82382163D01*
X176354795Y-82390958D01*
X176457432Y-82558445D01*
X176467890Y-82567907D01*
X176476666Y-82564124D01*
X177327978Y-81712812D01*
X177334356Y-81701132D01*
X178064408Y-81701132D01*
X178064539Y-81702965D01*
X178068790Y-81709580D01*
X178920290Y-82561080D01*
X178932670Y-82567840D01*
X178940320Y-82562113D01*
X179045205Y-82390958D01*
X179049687Y-82382163D01*
X179136734Y-82172012D01*
X179139783Y-82162627D01*
X179192885Y-81941446D01*
X179194428Y-81931699D01*
X179212275Y-81704930D01*
X179212275Y-81695070D01*
X179194428Y-81468301D01*
X179192885Y-81458554D01*
X179139783Y-81237373D01*
X179136734Y-81227988D01*
X179049687Y-81017837D01*
X179045205Y-81009042D01*
X178942568Y-80841555D01*
X178932110Y-80832093D01*
X178923334Y-80835876D01*
X178072022Y-81687188D01*
X178064408Y-81701132D01*
X177334356Y-81701132D01*
X177335592Y-81698868D01*
X177335461Y-81697035D01*
X177331210Y-81690420D01*
X176479710Y-80838920D01*
X176467330Y-80832160D01*
X176459680Y-80837887D01*
X176354795Y-81009042D01*
X176350313Y-81017837D01*
X176263266Y-81227988D01*
X176260217Y-81237373D01*
X176207115Y-81458554D01*
X176205572Y-81468301D01*
X176187725Y-81695070D01*
X176187725Y-81704930D01*
X174858861Y-81704930D01*
X174859292Y-81700000D01*
X174840161Y-81481326D01*
X174783347Y-81269297D01*
X174695089Y-81080025D01*
X174692905Y-81075341D01*
X174692902Y-81075336D01*
X174690579Y-81070354D01*
X174680040Y-81055303D01*
X174567833Y-80895054D01*
X174567831Y-80895051D01*
X174564674Y-80890543D01*
X174409457Y-80735326D01*
X174404949Y-80732169D01*
X174404946Y-80732167D01*
X174272322Y-80639303D01*
X174229646Y-80609421D01*
X174177249Y-80584988D01*
X174123965Y-80538072D01*
X174105054Y-80472708D01*
X174104818Y-80472725D01*
X174104739Y-80471621D01*
X174104500Y-80470794D01*
X174104500Y-80467890D01*
X176832093Y-80467890D01*
X176835876Y-80476666D01*
X177687188Y-81327978D01*
X177701132Y-81335592D01*
X177702965Y-81335461D01*
X177709580Y-81331210D01*
X178561080Y-80479710D01*
X178567840Y-80467330D01*
X178562113Y-80459680D01*
X178390958Y-80354795D01*
X178382163Y-80350313D01*
X178172012Y-80263266D01*
X178162627Y-80260217D01*
X177941446Y-80207115D01*
X177931699Y-80205572D01*
X177704930Y-80187725D01*
X177695070Y-80187725D01*
X177468301Y-80205572D01*
X177458554Y-80207115D01*
X177237373Y-80260217D01*
X177227988Y-80263266D01*
X177017837Y-80350313D01*
X177009042Y-80354795D01*
X176841555Y-80457432D01*
X176832093Y-80467890D01*
X174104500Y-80467890D01*
X174104500Y-80463774D01*
X174103035Y-80453541D01*
X174102004Y-80443481D01*
X174101040Y-80427934D01*
X174099098Y-80396642D01*
X174096050Y-80388199D01*
X174095371Y-80384920D01*
X174091416Y-80369055D01*
X174090473Y-80365831D01*
X174089201Y-80356948D01*
X174085487Y-80348779D01*
X174085485Y-80348773D01*
X174069775Y-80314221D01*
X174065961Y-80304852D01*
X174053077Y-80269163D01*
X174050028Y-80260716D01*
X174044731Y-80253466D01*
X174043154Y-80250499D01*
X174034907Y-80236386D01*
X174033102Y-80233563D01*
X174029388Y-80225395D01*
X173998753Y-80189842D01*
X173992475Y-80181936D01*
X173984527Y-80171056D01*
X173973665Y-80160194D01*
X173967307Y-80153347D01*
X173940915Y-80122718D01*
X173935056Y-80115918D01*
X173927521Y-80111034D01*
X173920949Y-80105301D01*
X173909545Y-80096074D01*
X170177942Y-76364471D01*
X172100884Y-76364471D01*
X172104570Y-76369740D01*
X172312121Y-76496927D01*
X172320915Y-76501408D01*
X172549242Y-76595984D01*
X172558627Y-76599033D01*
X172798940Y-76656728D01*
X172808687Y-76658271D01*
X173055070Y-76677662D01*
X173064930Y-76677662D01*
X173311313Y-76658271D01*
X173321060Y-76656728D01*
X173561373Y-76599033D01*
X173570758Y-76595984D01*
X173799085Y-76501408D01*
X173807879Y-76496927D01*
X174013928Y-76370660D01*
X174017968Y-76364471D01*
X177180884Y-76364471D01*
X177184570Y-76369740D01*
X177392121Y-76496927D01*
X177400915Y-76501408D01*
X177629242Y-76595984D01*
X177638627Y-76599033D01*
X177878940Y-76656728D01*
X177888687Y-76658271D01*
X178135070Y-76677662D01*
X178144930Y-76677662D01*
X178391313Y-76658271D01*
X178401060Y-76656728D01*
X178641373Y-76599033D01*
X178650758Y-76595984D01*
X178879085Y-76501408D01*
X178887879Y-76496927D01*
X179093928Y-76370660D01*
X179099190Y-76362599D01*
X179093183Y-76352393D01*
X178152812Y-75412022D01*
X178138868Y-75404408D01*
X178137035Y-75404539D01*
X178130420Y-75408790D01*
X177188276Y-76350934D01*
X177180884Y-76364471D01*
X174017968Y-76364471D01*
X174019190Y-76362599D01*
X174013183Y-76352393D01*
X173072812Y-75412022D01*
X173058868Y-75404408D01*
X173057035Y-75404539D01*
X173050420Y-75408790D01*
X172108276Y-76350934D01*
X172100884Y-76364471D01*
X170177942Y-76364471D01*
X168858401Y-75044930D01*
X171422338Y-75044930D01*
X171441729Y-75291313D01*
X171443272Y-75301060D01*
X171500967Y-75541373D01*
X171504016Y-75550758D01*
X171598592Y-75779085D01*
X171603073Y-75787879D01*
X171729340Y-75993928D01*
X171737401Y-75999190D01*
X171747607Y-75993183D01*
X172687978Y-75052812D01*
X172694356Y-75041132D01*
X173424408Y-75041132D01*
X173424539Y-75042965D01*
X173428790Y-75049580D01*
X174370934Y-75991724D01*
X174384471Y-75999116D01*
X174389740Y-75995430D01*
X174516927Y-75787879D01*
X174521408Y-75779085D01*
X174615984Y-75550758D01*
X174619033Y-75541373D01*
X174676728Y-75301060D01*
X174678271Y-75291313D01*
X174697662Y-75044930D01*
X176502338Y-75044930D01*
X176521729Y-75291313D01*
X176523272Y-75301060D01*
X176580967Y-75541373D01*
X176584016Y-75550758D01*
X176678592Y-75779085D01*
X176683073Y-75787879D01*
X176809340Y-75993928D01*
X176817401Y-75999190D01*
X176827607Y-75993183D01*
X177767978Y-75052812D01*
X177775592Y-75038868D01*
X177775461Y-75037035D01*
X177771210Y-75030420D01*
X176829066Y-74088276D01*
X176815529Y-74080884D01*
X176810260Y-74084570D01*
X176683073Y-74292121D01*
X176678592Y-74300915D01*
X176584016Y-74529242D01*
X176580967Y-74538627D01*
X176523272Y-74778940D01*
X176521729Y-74788687D01*
X176502338Y-75035070D01*
X176502338Y-75044930D01*
X174697662Y-75044930D01*
X174697662Y-75035070D01*
X174678271Y-74788687D01*
X174676728Y-74778940D01*
X174619033Y-74538627D01*
X174615984Y-74529242D01*
X174521408Y-74300915D01*
X174516927Y-74292121D01*
X174390660Y-74086072D01*
X174382599Y-74080810D01*
X174372393Y-74086817D01*
X173432022Y-75027188D01*
X173424408Y-75041132D01*
X172694356Y-75041132D01*
X172695592Y-75038868D01*
X172695461Y-75037035D01*
X172691210Y-75030420D01*
X171749066Y-74088276D01*
X171735529Y-74080884D01*
X171730260Y-74084570D01*
X171603073Y-74292121D01*
X171598592Y-74300915D01*
X171504016Y-74529242D01*
X171500967Y-74538627D01*
X171443272Y-74778940D01*
X171441729Y-74788687D01*
X171422338Y-75035070D01*
X171422338Y-75044930D01*
X168858401Y-75044930D01*
X168341405Y-74527934D01*
X168307379Y-74465622D01*
X168304500Y-74438839D01*
X168304500Y-73717401D01*
X172100810Y-73717401D01*
X172106817Y-73727607D01*
X173047188Y-74667978D01*
X173061132Y-74675592D01*
X173062965Y-74675461D01*
X173069580Y-74671210D01*
X174011724Y-73729066D01*
X174019116Y-73715529D01*
X174015430Y-73710260D01*
X173807879Y-73583073D01*
X173799085Y-73578592D01*
X173570758Y-73484016D01*
X173561373Y-73480967D01*
X173321060Y-73423272D01*
X173311313Y-73421729D01*
X173064930Y-73402338D01*
X173055070Y-73402338D01*
X172808687Y-73421729D01*
X172798940Y-73423272D01*
X172558627Y-73480967D01*
X172549242Y-73484016D01*
X172320915Y-73578592D01*
X172312121Y-73583073D01*
X172106072Y-73709340D01*
X172100810Y-73717401D01*
X168304500Y-73717401D01*
X168304500Y-72466180D01*
X174216185Y-72466180D01*
X174216482Y-72471332D01*
X174216482Y-72471336D01*
X174222034Y-72567619D01*
X174229243Y-72692647D01*
X174230380Y-72697693D01*
X174230381Y-72697699D01*
X174250596Y-72787396D01*
X174279114Y-72913941D01*
X174364458Y-73124117D01*
X174482983Y-73317533D01*
X174631506Y-73488993D01*
X174806039Y-73633893D01*
X175001895Y-73748342D01*
X175006715Y-73750182D01*
X175006720Y-73750185D01*
X175084582Y-73779917D01*
X175213813Y-73829265D01*
X175218881Y-73830296D01*
X175218884Y-73830297D01*
X175327980Y-73852493D01*
X175436102Y-73874491D01*
X175441275Y-73874681D01*
X175441278Y-73874681D01*
X175657629Y-73882614D01*
X175657633Y-73882614D01*
X175662793Y-73882803D01*
X175667913Y-73882147D01*
X175667915Y-73882147D01*
X175773070Y-73868676D01*
X175887797Y-73853979D01*
X175892746Y-73852494D01*
X175892752Y-73852493D01*
X176019475Y-73814474D01*
X176105073Y-73788794D01*
X176159107Y-73762323D01*
X176250803Y-73717401D01*
X177180810Y-73717401D01*
X177186817Y-73727607D01*
X178127188Y-74667978D01*
X178141132Y-74675592D01*
X178142965Y-74675461D01*
X178149580Y-74671210D01*
X179091724Y-73729066D01*
X179099116Y-73715529D01*
X179095430Y-73710260D01*
X178887879Y-73583073D01*
X178879085Y-73578592D01*
X178650758Y-73484016D01*
X178641373Y-73480967D01*
X178401060Y-73423272D01*
X178391313Y-73421729D01*
X178144930Y-73402338D01*
X178135070Y-73402338D01*
X177888687Y-73421729D01*
X177878940Y-73423272D01*
X177638627Y-73480967D01*
X177629242Y-73484016D01*
X177400915Y-73578592D01*
X177392121Y-73583073D01*
X177186072Y-73709340D01*
X177180810Y-73717401D01*
X176250803Y-73717401D01*
X176304142Y-73691270D01*
X176308784Y-73688996D01*
X176312988Y-73685998D01*
X176312992Y-73685995D01*
X176457283Y-73583073D01*
X176493461Y-73557268D01*
X176654143Y-73397146D01*
X176711351Y-73317533D01*
X176783497Y-73217130D01*
X176786515Y-73212930D01*
X176887023Y-73009568D01*
X176952966Y-72792522D01*
X176966115Y-72692647D01*
X176982138Y-72570941D01*
X176982139Y-72570935D01*
X176982575Y-72567619D01*
X176984228Y-72500000D01*
X176965641Y-72273920D01*
X176910378Y-72053911D01*
X176826568Y-71861160D01*
X176821985Y-71850619D01*
X176821983Y-71850616D01*
X176819925Y-71845882D01*
X176696710Y-71655420D01*
X176682028Y-71639284D01*
X176547519Y-71491462D01*
X176547518Y-71491461D01*
X176544041Y-71487640D01*
X176539990Y-71484441D01*
X176539986Y-71484437D01*
X176370075Y-71350249D01*
X176370071Y-71350247D01*
X176366020Y-71347047D01*
X176359510Y-71343453D01*
X176261348Y-71289265D01*
X176252664Y-71284471D01*
X177180884Y-71284471D01*
X177184570Y-71289740D01*
X177392121Y-71416927D01*
X177400915Y-71421408D01*
X177629242Y-71515984D01*
X177638627Y-71519033D01*
X177878940Y-71576728D01*
X177888687Y-71578271D01*
X178135070Y-71597662D01*
X178144930Y-71597662D01*
X178391313Y-71578271D01*
X178401060Y-71576728D01*
X178641373Y-71519033D01*
X178650758Y-71515984D01*
X178879085Y-71421408D01*
X178887879Y-71416927D01*
X179093928Y-71290660D01*
X179099190Y-71282599D01*
X179093183Y-71272393D01*
X178152812Y-70332022D01*
X178138868Y-70324408D01*
X178137035Y-70324539D01*
X178130420Y-70328790D01*
X177188276Y-71270934D01*
X177180884Y-71284471D01*
X176252664Y-71284471D01*
X176167427Y-71237418D01*
X176162558Y-71235694D01*
X176162554Y-71235692D01*
X175958470Y-71163422D01*
X175958466Y-71163421D01*
X175953595Y-71161696D01*
X175948502Y-71160789D01*
X175948499Y-71160788D01*
X175735356Y-71122821D01*
X175735350Y-71122820D01*
X175730267Y-71121915D01*
X175656724Y-71121017D01*
X175508611Y-71119207D01*
X175508609Y-71119207D01*
X175503441Y-71119144D01*
X175279208Y-71153456D01*
X175164254Y-71191029D01*
X175068509Y-71222323D01*
X175068507Y-71222324D01*
X175063590Y-71223931D01*
X175059004Y-71226318D01*
X175059000Y-71226320D01*
X174893465Y-71312493D01*
X174862378Y-71328676D01*
X174858236Y-71331786D01*
X174692102Y-71456523D01*
X174680975Y-71464877D01*
X174524253Y-71628877D01*
X174521339Y-71633149D01*
X174521338Y-71633150D01*
X174399340Y-71811992D01*
X174399337Y-71811997D01*
X174396421Y-71816272D01*
X174300912Y-72022029D01*
X174240290Y-72240622D01*
X174216185Y-72466180D01*
X168304500Y-72466180D01*
X168304500Y-71284471D01*
X172100884Y-71284471D01*
X172104570Y-71289740D01*
X172312121Y-71416927D01*
X172320915Y-71421408D01*
X172549242Y-71515984D01*
X172558627Y-71519033D01*
X172798940Y-71576728D01*
X172808687Y-71578271D01*
X173055070Y-71597662D01*
X173064930Y-71597662D01*
X173311313Y-71578271D01*
X173321060Y-71576728D01*
X173561373Y-71519033D01*
X173570758Y-71515984D01*
X173799085Y-71421408D01*
X173807879Y-71416927D01*
X174013928Y-71290660D01*
X174019190Y-71282599D01*
X174013183Y-71272393D01*
X173072812Y-70332022D01*
X173058868Y-70324408D01*
X173057035Y-70324539D01*
X173050420Y-70328790D01*
X172108276Y-71270934D01*
X172100884Y-71284471D01*
X168304500Y-71284471D01*
X168304500Y-69964930D01*
X171422338Y-69964930D01*
X171441729Y-70211313D01*
X171443272Y-70221060D01*
X171500967Y-70461373D01*
X171504016Y-70470758D01*
X171598592Y-70699085D01*
X171603073Y-70707879D01*
X171729340Y-70913928D01*
X171737401Y-70919190D01*
X171747607Y-70913183D01*
X172687978Y-69972812D01*
X172694356Y-69961132D01*
X173424408Y-69961132D01*
X173424539Y-69962965D01*
X173428790Y-69969580D01*
X174370934Y-70911724D01*
X174384471Y-70919116D01*
X174389740Y-70915430D01*
X174516927Y-70707879D01*
X174521408Y-70699085D01*
X174615984Y-70470758D01*
X174619033Y-70461373D01*
X174676728Y-70221060D01*
X174678271Y-70211313D01*
X174697662Y-69964930D01*
X176502338Y-69964930D01*
X176521729Y-70211313D01*
X176523272Y-70221060D01*
X176580967Y-70461373D01*
X176584016Y-70470758D01*
X176678592Y-70699085D01*
X176683073Y-70707879D01*
X176809340Y-70913928D01*
X176817401Y-70919190D01*
X176827607Y-70913183D01*
X177767978Y-69972812D01*
X177775592Y-69958868D01*
X177775461Y-69957035D01*
X177771210Y-69950420D01*
X176829066Y-69008276D01*
X176815529Y-69000884D01*
X176810260Y-69004570D01*
X176683073Y-69212121D01*
X176678592Y-69220915D01*
X176584016Y-69449242D01*
X176580967Y-69458627D01*
X176523272Y-69698940D01*
X176521729Y-69708687D01*
X176502338Y-69955070D01*
X176502338Y-69964930D01*
X174697662Y-69964930D01*
X174697662Y-69955070D01*
X174678271Y-69708687D01*
X174676728Y-69698940D01*
X174619033Y-69458627D01*
X174615984Y-69449242D01*
X174521408Y-69220915D01*
X174516927Y-69212121D01*
X174390660Y-69006072D01*
X174382599Y-69000810D01*
X174372393Y-69006817D01*
X173432022Y-69947188D01*
X173424408Y-69961132D01*
X172694356Y-69961132D01*
X172695592Y-69958868D01*
X172695461Y-69957035D01*
X172691210Y-69950420D01*
X171749066Y-69008276D01*
X171735529Y-69000884D01*
X171730260Y-69004570D01*
X171603073Y-69212121D01*
X171598592Y-69220915D01*
X171504016Y-69449242D01*
X171500967Y-69458627D01*
X171443272Y-69698940D01*
X171441729Y-69708687D01*
X171422338Y-69955070D01*
X171422338Y-69964930D01*
X168304500Y-69964930D01*
X168304500Y-68637401D01*
X172100810Y-68637401D01*
X172106817Y-68647607D01*
X173047188Y-69587978D01*
X173061132Y-69595592D01*
X173062965Y-69595461D01*
X173069580Y-69591210D01*
X174011724Y-68649066D01*
X174018094Y-68637401D01*
X177180810Y-68637401D01*
X177186817Y-68647607D01*
X178127188Y-69587978D01*
X178141132Y-69595592D01*
X178142965Y-69595461D01*
X178149580Y-69591210D01*
X179091724Y-68649066D01*
X179099116Y-68635529D01*
X179095430Y-68630260D01*
X178887879Y-68503073D01*
X178879085Y-68498592D01*
X178650758Y-68404016D01*
X178641373Y-68400967D01*
X178401060Y-68343272D01*
X178391313Y-68341729D01*
X178144930Y-68322338D01*
X178135070Y-68322338D01*
X177888687Y-68341729D01*
X177878940Y-68343272D01*
X177638627Y-68400967D01*
X177629242Y-68404016D01*
X177400915Y-68498592D01*
X177392121Y-68503073D01*
X177186072Y-68629340D01*
X177180810Y-68637401D01*
X174018094Y-68637401D01*
X174019116Y-68635529D01*
X174015430Y-68630260D01*
X173807879Y-68503073D01*
X173799085Y-68498592D01*
X173570758Y-68404016D01*
X173561373Y-68400967D01*
X173321060Y-68343272D01*
X173311313Y-68341729D01*
X173064930Y-68322338D01*
X173055070Y-68322338D01*
X172808687Y-68341729D01*
X172798940Y-68343272D01*
X172558627Y-68400967D01*
X172549242Y-68404016D01*
X172320915Y-68498592D01*
X172312121Y-68503073D01*
X172106072Y-68629340D01*
X172100810Y-68637401D01*
X168304500Y-68637401D01*
X168304500Y-63605206D01*
X168760501Y-63605206D01*
X168777806Y-63811278D01*
X168834807Y-64010066D01*
X168837625Y-64015548D01*
X168837626Y-64015552D01*
X168926514Y-64188509D01*
X168926517Y-64188513D01*
X168929334Y-64193995D01*
X169057786Y-64356061D01*
X169215271Y-64490091D01*
X169395789Y-64590980D01*
X169592466Y-64654884D01*
X169797809Y-64679370D01*
X169803944Y-64678898D01*
X169803946Y-64678898D01*
X169997856Y-64663977D01*
X169997860Y-64663976D01*
X170003998Y-64663504D01*
X170203178Y-64607892D01*
X170208682Y-64605112D01*
X170208684Y-64605111D01*
X170382262Y-64517431D01*
X170382264Y-64517430D01*
X170387763Y-64514652D01*
X170550722Y-64387334D01*
X170554748Y-64382670D01*
X170554751Y-64382667D01*
X170681819Y-64235457D01*
X170681820Y-64235455D01*
X170685848Y-64230789D01*
X170787995Y-64050979D01*
X170853270Y-63854753D01*
X170879189Y-63649586D01*
X170879602Y-63620000D01*
X170859422Y-63414189D01*
X170799651Y-63216217D01*
X170702565Y-63033625D01*
X170698674Y-63028855D01*
X170698672Y-63028851D01*
X170575758Y-62878143D01*
X170575755Y-62878140D01*
X170571863Y-62873368D01*
X170564966Y-62867662D01*
X170417271Y-62745478D01*
X170417266Y-62745475D01*
X170412522Y-62741550D01*
X170407103Y-62738620D01*
X170407100Y-62738618D01*
X170236032Y-62646122D01*
X170236027Y-62646120D01*
X170230612Y-62643192D01*
X170033063Y-62582040D01*
X170026938Y-62581396D01*
X170026937Y-62581396D01*
X169833526Y-62561068D01*
X169833524Y-62561068D01*
X169827397Y-62560424D01*
X169701229Y-62571906D01*
X169627591Y-62578607D01*
X169627590Y-62578607D01*
X169621450Y-62579166D01*
X169423066Y-62637554D01*
X169417601Y-62640411D01*
X169245261Y-62730508D01*
X169245257Y-62730511D01*
X169239801Y-62733363D01*
X169078635Y-62862943D01*
X168945708Y-63021360D01*
X168846082Y-63202578D01*
X168783553Y-63399696D01*
X168760501Y-63605206D01*
X168304500Y-63605206D01*
X168304500Y-61065206D01*
X168760501Y-61065206D01*
X168761743Y-61080000D01*
X168775830Y-61247743D01*
X168777806Y-61271278D01*
X168834807Y-61470066D01*
X168837625Y-61475548D01*
X168837626Y-61475552D01*
X168926514Y-61648509D01*
X168926517Y-61648513D01*
X168929334Y-61653995D01*
X169057786Y-61816061D01*
X169062479Y-61820055D01*
X169062480Y-61820056D01*
X169167791Y-61909682D01*
X169215271Y-61950091D01*
X169395789Y-62050980D01*
X169592466Y-62114884D01*
X169797809Y-62139370D01*
X169803944Y-62138898D01*
X169803946Y-62138898D01*
X169997856Y-62123977D01*
X169997860Y-62123976D01*
X170003998Y-62123504D01*
X170203178Y-62067892D01*
X170208682Y-62065112D01*
X170208684Y-62065111D01*
X170382262Y-61977431D01*
X170382264Y-61977430D01*
X170387763Y-61974652D01*
X170550722Y-61847334D01*
X170554748Y-61842670D01*
X170554751Y-61842667D01*
X170681819Y-61695457D01*
X170681820Y-61695455D01*
X170685848Y-61690789D01*
X170787995Y-61510979D01*
X170838686Y-61358595D01*
X170851325Y-61320601D01*
X170851326Y-61320598D01*
X170853270Y-61314753D01*
X170879189Y-61109586D01*
X170879602Y-61080000D01*
X170859422Y-60874189D01*
X170799651Y-60676217D01*
X170702565Y-60493625D01*
X170698674Y-60488855D01*
X170698672Y-60488851D01*
X170575758Y-60338143D01*
X170575755Y-60338140D01*
X170571863Y-60333368D01*
X170564966Y-60327662D01*
X170417271Y-60205478D01*
X170417266Y-60205475D01*
X170412522Y-60201550D01*
X170407103Y-60198620D01*
X170407100Y-60198618D01*
X170236032Y-60106122D01*
X170236027Y-60106120D01*
X170230612Y-60103192D01*
X170033063Y-60042040D01*
X170026938Y-60041396D01*
X170026937Y-60041396D01*
X169833526Y-60021068D01*
X169833524Y-60021068D01*
X169827397Y-60020424D01*
X169701229Y-60031906D01*
X169627591Y-60038607D01*
X169627590Y-60038607D01*
X169621450Y-60039166D01*
X169423066Y-60097554D01*
X169417601Y-60100411D01*
X169245261Y-60190508D01*
X169245257Y-60190511D01*
X169239801Y-60193363D01*
X169078635Y-60322943D01*
X168945708Y-60481360D01*
X168846082Y-60662578D01*
X168783553Y-60859696D01*
X168760501Y-61065206D01*
X168304500Y-61065206D01*
X168304500Y-58281161D01*
X168324502Y-58213040D01*
X168341405Y-58192066D01*
X168755518Y-57777953D01*
X168817830Y-57743927D01*
X168888645Y-57748992D01*
X168945481Y-57791539D01*
X168970292Y-57858059D01*
X168955201Y-57927433D01*
X168949247Y-57937143D01*
X168945708Y-57941360D01*
X168942739Y-57946761D01*
X168942737Y-57946764D01*
X168935973Y-57959067D01*
X168846082Y-58122578D01*
X168783553Y-58319696D01*
X168782867Y-58325813D01*
X168782866Y-58325817D01*
X168770503Y-58436037D01*
X168760501Y-58525206D01*
X168777806Y-58731278D01*
X168834807Y-58930066D01*
X168837625Y-58935548D01*
X168837626Y-58935552D01*
X168926514Y-59108509D01*
X168926517Y-59108513D01*
X168929334Y-59113995D01*
X169057786Y-59276061D01*
X169062479Y-59280055D01*
X169062480Y-59280056D01*
X169197690Y-59395128D01*
X169215271Y-59410091D01*
X169395789Y-59510980D01*
X169592466Y-59574884D01*
X169797809Y-59599370D01*
X169803944Y-59598898D01*
X169803946Y-59598898D01*
X169997856Y-59583977D01*
X169997860Y-59583976D01*
X170003998Y-59583504D01*
X170203178Y-59527892D01*
X170208682Y-59525112D01*
X170208684Y-59525111D01*
X170382262Y-59437431D01*
X170382264Y-59437430D01*
X170387763Y-59434652D01*
X170550722Y-59307334D01*
X170554748Y-59302670D01*
X170554751Y-59302667D01*
X170681819Y-59155457D01*
X170681820Y-59155455D01*
X170685848Y-59150789D01*
X170758581Y-59022757D01*
X170784950Y-58976340D01*
X170784952Y-58976336D01*
X170787995Y-58970979D01*
X170853270Y-58774753D01*
X170879189Y-58569586D01*
X170879602Y-58540000D01*
X170859422Y-58334189D01*
X170799651Y-58136217D01*
X170725129Y-57996062D01*
X170705459Y-57959067D01*
X170705457Y-57959064D01*
X170702565Y-57953625D01*
X170698674Y-57948855D01*
X170698672Y-57948851D01*
X170575758Y-57798143D01*
X170575755Y-57798140D01*
X170571863Y-57793368D01*
X170560114Y-57783648D01*
X170417271Y-57665478D01*
X170417266Y-57665475D01*
X170412522Y-57661550D01*
X170407103Y-57658620D01*
X170407100Y-57658618D01*
X170236032Y-57566122D01*
X170236027Y-57566120D01*
X170230612Y-57563192D01*
X170033063Y-57502040D01*
X170026938Y-57501396D01*
X170026937Y-57501396D01*
X169833526Y-57481068D01*
X169833524Y-57481068D01*
X169827397Y-57480424D01*
X169701229Y-57491906D01*
X169627591Y-57498607D01*
X169627590Y-57498607D01*
X169621450Y-57499166D01*
X169423066Y-57557554D01*
X169417601Y-57560411D01*
X169245261Y-57650508D01*
X169245257Y-57650511D01*
X169239801Y-57653363D01*
X169235001Y-57657223D01*
X169235000Y-57657223D01*
X169217585Y-57671225D01*
X169151962Y-57698321D01*
X169082108Y-57685637D01*
X169030200Y-57637201D01*
X169012718Y-57568390D01*
X169035214Y-57501052D01*
X169049538Y-57483933D01*
X169467233Y-57066238D01*
X169529545Y-57032212D01*
X169583383Y-57032272D01*
X169586612Y-57032982D01*
X169592466Y-57034884D01*
X169797809Y-57059370D01*
X169803944Y-57058898D01*
X169803946Y-57058898D01*
X169997856Y-57043977D01*
X169997860Y-57043976D01*
X170003998Y-57043504D01*
X170203178Y-56987892D01*
X170208682Y-56985112D01*
X170208684Y-56985111D01*
X170382262Y-56897431D01*
X170382264Y-56897430D01*
X170387763Y-56894652D01*
X170550722Y-56767334D01*
X170554748Y-56762670D01*
X170554751Y-56762667D01*
X170681819Y-56615457D01*
X170681820Y-56615455D01*
X170685848Y-56610789D01*
X170787995Y-56430979D01*
X170820865Y-56332167D01*
X170851325Y-56240601D01*
X170851326Y-56240598D01*
X170853270Y-56234753D01*
X170879189Y-56029586D01*
X170879602Y-56000000D01*
X170859422Y-55794189D01*
X170799651Y-55596217D01*
X170721625Y-55449471D01*
X170705459Y-55419067D01*
X170705457Y-55419064D01*
X170702565Y-55413625D01*
X170698674Y-55408855D01*
X170698672Y-55408851D01*
X170575758Y-55258143D01*
X170575755Y-55258140D01*
X170571863Y-55253368D01*
X170564966Y-55247662D01*
X170417271Y-55125478D01*
X170417266Y-55125475D01*
X170412522Y-55121550D01*
X170407103Y-55118620D01*
X170407100Y-55118618D01*
X170372667Y-55100000D01*
X173740793Y-55100000D01*
X173741483Y-55106565D01*
X173755412Y-55239084D01*
X173759569Y-55278639D01*
X173761609Y-55284917D01*
X173761609Y-55284918D01*
X173797910Y-55396641D01*
X173815075Y-55449471D01*
X173904887Y-55605029D01*
X174025078Y-55738515D01*
X174030420Y-55742396D01*
X174030422Y-55742398D01*
X174165054Y-55840214D01*
X174170396Y-55844095D01*
X174176424Y-55846779D01*
X174176426Y-55846780D01*
X174318280Y-55909937D01*
X174334490Y-55917154D01*
X174422339Y-55935827D01*
X174503731Y-55953128D01*
X174503736Y-55953128D01*
X174510188Y-55954500D01*
X174689812Y-55954500D01*
X174696264Y-55953128D01*
X174696269Y-55953128D01*
X174777661Y-55935827D01*
X174865510Y-55917154D01*
X174881720Y-55909937D01*
X175023574Y-55846780D01*
X175023576Y-55846779D01*
X175029604Y-55844095D01*
X175034946Y-55840214D01*
X175169578Y-55742398D01*
X175169580Y-55742396D01*
X175174922Y-55738515D01*
X175295113Y-55605029D01*
X175384925Y-55449471D01*
X175402091Y-55396641D01*
X175438391Y-55284918D01*
X175438391Y-55284917D01*
X175440431Y-55278639D01*
X175444589Y-55239084D01*
X175458517Y-55106565D01*
X175459207Y-55100000D01*
X175740793Y-55100000D01*
X175741483Y-55106565D01*
X175755412Y-55239084D01*
X175759569Y-55278639D01*
X175761609Y-55284917D01*
X175761609Y-55284918D01*
X175797910Y-55396641D01*
X175815075Y-55449471D01*
X175904887Y-55605029D01*
X176025078Y-55738515D01*
X176030420Y-55742396D01*
X176030422Y-55742398D01*
X176165054Y-55840214D01*
X176170396Y-55844095D01*
X176176424Y-55846779D01*
X176176426Y-55846780D01*
X176318280Y-55909937D01*
X176334490Y-55917154D01*
X176422339Y-55935827D01*
X176503731Y-55953128D01*
X176503736Y-55953128D01*
X176510188Y-55954500D01*
X176689812Y-55954500D01*
X176696264Y-55953128D01*
X176696269Y-55953128D01*
X176777661Y-55935827D01*
X176865510Y-55917154D01*
X176881720Y-55909937D01*
X177023574Y-55846780D01*
X177023576Y-55846779D01*
X177029604Y-55844095D01*
X177034946Y-55840214D01*
X177169578Y-55742398D01*
X177169580Y-55742396D01*
X177174922Y-55738515D01*
X177295113Y-55605029D01*
X177384925Y-55449471D01*
X177402091Y-55396641D01*
X177438391Y-55284918D01*
X177438391Y-55284917D01*
X177440431Y-55278639D01*
X177444589Y-55239084D01*
X177458517Y-55106565D01*
X177459207Y-55100000D01*
X177440431Y-54921361D01*
X177433714Y-54900689D01*
X177386967Y-54756813D01*
X177386966Y-54756811D01*
X177384925Y-54750529D01*
X177295113Y-54594971D01*
X177174922Y-54461485D01*
X177029604Y-54355905D01*
X177023576Y-54353221D01*
X177023574Y-54353220D01*
X176871541Y-54285531D01*
X176871540Y-54285531D01*
X176865510Y-54282846D01*
X176777661Y-54264173D01*
X176696269Y-54246872D01*
X176696264Y-54246872D01*
X176689812Y-54245500D01*
X176510188Y-54245500D01*
X176503736Y-54246872D01*
X176503731Y-54246872D01*
X176422339Y-54264173D01*
X176334490Y-54282846D01*
X176328460Y-54285531D01*
X176328459Y-54285531D01*
X176176427Y-54353220D01*
X176176425Y-54353221D01*
X176170397Y-54355905D01*
X176165056Y-54359785D01*
X176165055Y-54359786D01*
X176030422Y-54457602D01*
X176030420Y-54457604D01*
X176025078Y-54461485D01*
X175904887Y-54594971D01*
X175815075Y-54750529D01*
X175813034Y-54756811D01*
X175813033Y-54756813D01*
X175766286Y-54900689D01*
X175759569Y-54921361D01*
X175740793Y-55100000D01*
X175459207Y-55100000D01*
X175440431Y-54921361D01*
X175433714Y-54900689D01*
X175386967Y-54756813D01*
X175386966Y-54756811D01*
X175384925Y-54750529D01*
X175295113Y-54594971D01*
X175174922Y-54461485D01*
X175029604Y-54355905D01*
X175023576Y-54353221D01*
X175023574Y-54353220D01*
X174871541Y-54285531D01*
X174871540Y-54285531D01*
X174865510Y-54282846D01*
X174777661Y-54264173D01*
X174696269Y-54246872D01*
X174696264Y-54246872D01*
X174689812Y-54245500D01*
X174510188Y-54245500D01*
X174503736Y-54246872D01*
X174503731Y-54246872D01*
X174422339Y-54264173D01*
X174334490Y-54282846D01*
X174328460Y-54285531D01*
X174328459Y-54285531D01*
X174176427Y-54353220D01*
X174176425Y-54353221D01*
X174170397Y-54355905D01*
X174165056Y-54359785D01*
X174165055Y-54359786D01*
X174030422Y-54457602D01*
X174030420Y-54457604D01*
X174025078Y-54461485D01*
X173904887Y-54594971D01*
X173815075Y-54750529D01*
X173813034Y-54756811D01*
X173813033Y-54756813D01*
X173766286Y-54900689D01*
X173759569Y-54921361D01*
X173740793Y-55100000D01*
X170372667Y-55100000D01*
X170236032Y-55026122D01*
X170236027Y-55026120D01*
X170230612Y-55023192D01*
X170033063Y-54962040D01*
X170026938Y-54961396D01*
X170026937Y-54961396D01*
X169833526Y-54941068D01*
X169833524Y-54941068D01*
X169827397Y-54940424D01*
X169701229Y-54951906D01*
X169627591Y-54958607D01*
X169627590Y-54958607D01*
X169621450Y-54959166D01*
X169423066Y-55017554D01*
X169417601Y-55020411D01*
X169245261Y-55110508D01*
X169245257Y-55110511D01*
X169239801Y-55113363D01*
X169078635Y-55242943D01*
X168945708Y-55401360D01*
X168846082Y-55582578D01*
X168783553Y-55779696D01*
X168782867Y-55785813D01*
X168782866Y-55785817D01*
X168768134Y-55917154D01*
X168760501Y-55985206D01*
X168761743Y-56000000D01*
X168771735Y-56118978D01*
X168777806Y-56191278D01*
X168783914Y-56212578D01*
X168787977Y-56226748D01*
X168787528Y-56297743D01*
X168755954Y-56350575D01*
X167493206Y-57613323D01*
X167483766Y-57620865D01*
X167484089Y-57621245D01*
X167477253Y-57627063D01*
X167469661Y-57631853D01*
X167463719Y-57638581D01*
X167434329Y-57671859D01*
X167428983Y-57677546D01*
X167417649Y-57688880D01*
X167414964Y-57692463D01*
X167414962Y-57692465D01*
X167411447Y-57697155D01*
X167405062Y-57704998D01*
X167373999Y-57740170D01*
X167370186Y-57748292D01*
X167368346Y-57751093D01*
X167359937Y-57765088D01*
X167358315Y-57768051D01*
X167352930Y-57775236D01*
X167349777Y-57783646D01*
X167349776Y-57783648D01*
X167336454Y-57819182D01*
X167332530Y-57828495D01*
X167312583Y-57870982D01*
X167311201Y-57879856D01*
X167310215Y-57883083D01*
X167306075Y-57898866D01*
X167305354Y-57902144D01*
X167302202Y-57910552D01*
X167301537Y-57919503D01*
X167298724Y-57957357D01*
X167297570Y-57967404D01*
X167295500Y-57980697D01*
X167295500Y-57996062D01*
X167295154Y-58005399D01*
X167291493Y-58054667D01*
X167293366Y-58063442D01*
X167293959Y-58072138D01*
X167295500Y-58086738D01*
X167295500Y-74629376D01*
X167294159Y-74641381D01*
X167294655Y-74641421D01*
X167293935Y-74650368D01*
X167291954Y-74659124D01*
X167292510Y-74668084D01*
X167295258Y-74712382D01*
X167295500Y-74720184D01*
X167295500Y-74736226D01*
X167296135Y-74740657D01*
X167296135Y-74740662D01*
X167296965Y-74746453D01*
X167297996Y-74756514D01*
X167300902Y-74803359D01*
X167303949Y-74811799D01*
X167304630Y-74815089D01*
X167308582Y-74830938D01*
X167309527Y-74834168D01*
X167310799Y-74843052D01*
X167314514Y-74851223D01*
X167330218Y-74885763D01*
X167334030Y-74895128D01*
X167346922Y-74930837D01*
X167346924Y-74930840D01*
X167349972Y-74939284D01*
X167355268Y-74946533D01*
X167356840Y-74949490D01*
X167365093Y-74963614D01*
X167366898Y-74966437D01*
X167370612Y-74974605D01*
X167376469Y-74981402D01*
X167376470Y-74981404D01*
X167401243Y-75010153D01*
X167407525Y-75018064D01*
X167415473Y-75028944D01*
X167426335Y-75039806D01*
X167432693Y-75046652D01*
X167464944Y-75084082D01*
X167472479Y-75088966D01*
X167479051Y-75094699D01*
X167490455Y-75103926D01*
X169613824Y-77227295D01*
X169647850Y-77289607D01*
X169642785Y-77360422D01*
X169600238Y-77417258D01*
X169533718Y-77442069D01*
X169513746Y-77441910D01*
X169505483Y-77441187D01*
X169505475Y-77441187D01*
X169500000Y-77440708D01*
X169281326Y-77459839D01*
X169108669Y-77506103D01*
X169037692Y-77504413D01*
X168986962Y-77473491D01*
X162741405Y-71227934D01*
X162707379Y-71165622D01*
X162704500Y-71138839D01*
X162704500Y-64623357D01*
X162724502Y-64555236D01*
X162762794Y-64517162D01*
X162767763Y-64514652D01*
X162772615Y-64510861D01*
X162772620Y-64510858D01*
X162849243Y-64450993D01*
X162930722Y-64387334D01*
X162934748Y-64382670D01*
X162934751Y-64382667D01*
X163061819Y-64235457D01*
X163061820Y-64235455D01*
X163065848Y-64230789D01*
X163167995Y-64050979D01*
X163233270Y-63854753D01*
X163259189Y-63649586D01*
X163259602Y-63620000D01*
X163239422Y-63414189D01*
X163179651Y-63216217D01*
X163082565Y-63033625D01*
X163078674Y-63028855D01*
X163078672Y-63028851D01*
X162955758Y-62878143D01*
X162955755Y-62878140D01*
X162951863Y-62873368D01*
X162944966Y-62867662D01*
X162797271Y-62745478D01*
X162797266Y-62745475D01*
X162792522Y-62741550D01*
X162787103Y-62738620D01*
X162787100Y-62738618D01*
X162616032Y-62646122D01*
X162616027Y-62646120D01*
X162610612Y-62643192D01*
X162475118Y-62601249D01*
X162415959Y-62561999D01*
X162387412Y-62496994D01*
X162398541Y-62426875D01*
X162445812Y-62373904D01*
X162479767Y-62359178D01*
X162643761Y-62315236D01*
X162654053Y-62311490D01*
X162851511Y-62219414D01*
X162861007Y-62213931D01*
X163039467Y-62088972D01*
X163047875Y-62081916D01*
X163201916Y-61927875D01*
X163208972Y-61919467D01*
X163333931Y-61741007D01*
X163339414Y-61731511D01*
X163431490Y-61534053D01*
X163435236Y-61523761D01*
X163481394Y-61351497D01*
X163481058Y-61337401D01*
X163473116Y-61334000D01*
X160932033Y-61334000D01*
X160918502Y-61337973D01*
X160917273Y-61346522D01*
X151753443Y-61346522D01*
X151642988Y-61288039D01*
X151642989Y-61288039D01*
X151636274Y-61284484D01*
X151482633Y-61245892D01*
X151475034Y-61245852D01*
X151475033Y-61245852D01*
X151409181Y-61245507D01*
X151324221Y-61245062D01*
X151316841Y-61246834D01*
X151316839Y-61246834D01*
X151177563Y-61280271D01*
X151177560Y-61280272D01*
X151170184Y-61282043D01*
X151163439Y-61285524D01*
X151163440Y-61285524D01*
X151045259Y-61346522D01*
X151029414Y-61354700D01*
X151023692Y-61359692D01*
X151023690Y-61359693D01*
X151018236Y-61364451D01*
X150953753Y-61394157D01*
X150935409Y-61395500D01*
X150361161Y-61395500D01*
X150293040Y-61375498D01*
X150272066Y-61358595D01*
X149721974Y-60808503D01*
X160918606Y-60808503D01*
X160918942Y-60822599D01*
X160926884Y-60826000D01*
X163467967Y-60826000D01*
X163481498Y-60822027D01*
X163482727Y-60813478D01*
X163435236Y-60636239D01*
X163431490Y-60625947D01*
X163339414Y-60428489D01*
X163333931Y-60418993D01*
X163208972Y-60240533D01*
X163201916Y-60232125D01*
X163047875Y-60078084D01*
X163039467Y-60071028D01*
X162861007Y-59946069D01*
X162851511Y-59940586D01*
X162654053Y-59848510D01*
X162643761Y-59844764D01*
X162478603Y-59800510D01*
X162417980Y-59763558D01*
X162386959Y-59699697D01*
X162395387Y-59629203D01*
X162440590Y-59574456D01*
X162477323Y-59557447D01*
X162583178Y-59527892D01*
X162588682Y-59525112D01*
X162588684Y-59525111D01*
X162762262Y-59437431D01*
X162762264Y-59437430D01*
X162767763Y-59434652D01*
X162930722Y-59307334D01*
X162934748Y-59302670D01*
X162934751Y-59302667D01*
X163061819Y-59155457D01*
X163061820Y-59155455D01*
X163065848Y-59150789D01*
X163138581Y-59022757D01*
X163164950Y-58976340D01*
X163164952Y-58976336D01*
X163167995Y-58970979D01*
X163233270Y-58774753D01*
X163259189Y-58569586D01*
X163259602Y-58540000D01*
X163239422Y-58334189D01*
X163179651Y-58136217D01*
X163105129Y-57996062D01*
X163085459Y-57959067D01*
X163085457Y-57959064D01*
X163082565Y-57953625D01*
X163078674Y-57948855D01*
X163078672Y-57948851D01*
X162955758Y-57798143D01*
X162955755Y-57798140D01*
X162951863Y-57793368D01*
X162940114Y-57783648D01*
X162797271Y-57665478D01*
X162797266Y-57665475D01*
X162792522Y-57661550D01*
X162787103Y-57658620D01*
X162787100Y-57658618D01*
X162616032Y-57566122D01*
X162616027Y-57566120D01*
X162610612Y-57563192D01*
X162413063Y-57502040D01*
X162406938Y-57501396D01*
X162406937Y-57501396D01*
X162213526Y-57481068D01*
X162213524Y-57481068D01*
X162207397Y-57480424D01*
X162081229Y-57491906D01*
X162007591Y-57498607D01*
X162007590Y-57498607D01*
X162001450Y-57499166D01*
X161803066Y-57557554D01*
X161797601Y-57560411D01*
X161625261Y-57650508D01*
X161625257Y-57650511D01*
X161619801Y-57653363D01*
X161458635Y-57782943D01*
X161325708Y-57941360D01*
X161226082Y-58122578D01*
X161163553Y-58319696D01*
X161162867Y-58325813D01*
X161162866Y-58325817D01*
X161150503Y-58436037D01*
X161140501Y-58525206D01*
X161157806Y-58731278D01*
X161214807Y-58930066D01*
X161217625Y-58935548D01*
X161217626Y-58935552D01*
X161306514Y-59108509D01*
X161306517Y-59108513D01*
X161309334Y-59113995D01*
X161437786Y-59276061D01*
X161442479Y-59280055D01*
X161442480Y-59280056D01*
X161577690Y-59395128D01*
X161595271Y-59410091D01*
X161775789Y-59510980D01*
X161864507Y-59539806D01*
X161925402Y-59559592D01*
X161984008Y-59599665D01*
X162011645Y-59665062D01*
X161999538Y-59735019D01*
X161951532Y-59787325D01*
X161919077Y-59801132D01*
X161756239Y-59844764D01*
X161745947Y-59848510D01*
X161548489Y-59940586D01*
X161538993Y-59946069D01*
X161360533Y-60071028D01*
X161352125Y-60078084D01*
X161198084Y-60232125D01*
X161191028Y-60240533D01*
X161066069Y-60418993D01*
X161060586Y-60428489D01*
X160968510Y-60625947D01*
X160964764Y-60636239D01*
X160918606Y-60808503D01*
X149721974Y-60808503D01*
X147991952Y-59078481D01*
X147957926Y-59016169D01*
X147962991Y-58945354D01*
X147970633Y-58928684D01*
X147973322Y-58923794D01*
X147977755Y-58917624D01*
X147982580Y-58905623D01*
X148034006Y-58777695D01*
X148036842Y-58770641D01*
X148059162Y-58613807D01*
X148059307Y-58600000D01*
X148040276Y-58442733D01*
X147984280Y-58294546D01*
X147894553Y-58163992D01*
X147776275Y-58058611D01*
X147768889Y-58054700D01*
X147642988Y-57988039D01*
X147642989Y-57988039D01*
X147636274Y-57984484D01*
X147482633Y-57945892D01*
X147475034Y-57945852D01*
X147475033Y-57945852D01*
X147409181Y-57945507D01*
X147324221Y-57945062D01*
X147316841Y-57946834D01*
X147316839Y-57946834D01*
X147177563Y-57980271D01*
X147177560Y-57980272D01*
X147170184Y-57982043D01*
X147029414Y-58054700D01*
X146910039Y-58158838D01*
X146818950Y-58288444D01*
X146761406Y-58436037D01*
X146760414Y-58443570D01*
X146760414Y-58443571D01*
X146743363Y-58573090D01*
X146740729Y-58593096D01*
X127365146Y-58593096D01*
X123946983Y-55174933D01*
X161145500Y-55174933D01*
X161145501Y-56825066D01*
X161147766Y-56836454D01*
X161155355Y-56874608D01*
X161160266Y-56899301D01*
X161167161Y-56909620D01*
X161167162Y-56909622D01*
X161183906Y-56934681D01*
X161216516Y-56983484D01*
X161300699Y-57039734D01*
X161374933Y-57054500D01*
X162199866Y-57054500D01*
X163025066Y-57054499D01*
X163060818Y-57047388D01*
X163087126Y-57042156D01*
X163087128Y-57042155D01*
X163099301Y-57039734D01*
X163109621Y-57032839D01*
X163109622Y-57032838D01*
X163173168Y-56990377D01*
X163183484Y-56983484D01*
X163239734Y-56899301D01*
X163254500Y-56825067D01*
X163254499Y-55174934D01*
X163247388Y-55139182D01*
X163242156Y-55112874D01*
X163242155Y-55112872D01*
X163239734Y-55100699D01*
X163183484Y-55016516D01*
X163099301Y-54960266D01*
X163025067Y-54945500D01*
X162200134Y-54945500D01*
X161374934Y-54945501D01*
X161339182Y-54952612D01*
X161312874Y-54957844D01*
X161312872Y-54957845D01*
X161300699Y-54960266D01*
X161290379Y-54967161D01*
X161290378Y-54967162D01*
X161229985Y-55007516D01*
X161216516Y-55016516D01*
X161160266Y-55100699D01*
X161145500Y-55174933D01*
X123946983Y-55174933D01*
X122163515Y-53391465D01*
X122163511Y-53391462D01*
X122140723Y-53368674D01*
X122120844Y-53358545D01*
X122103989Y-53348216D01*
X122093953Y-53340925D01*
X122085929Y-53335095D01*
X122064704Y-53328199D01*
X122046438Y-53320633D01*
X122026555Y-53310502D01*
X122004513Y-53307011D01*
X121985287Y-53302395D01*
X121973500Y-53298565D01*
X121973498Y-53298565D01*
X121964066Y-53295500D01*
X120115946Y-53295500D01*
X120047825Y-53275498D01*
X120046946Y-53274897D01*
X120040723Y-53268674D01*
X120020844Y-53258545D01*
X120003989Y-53248216D01*
X119993953Y-53240925D01*
X119985929Y-53235095D01*
X119964704Y-53228199D01*
X119946438Y-53220633D01*
X119926555Y-53210502D01*
X119904513Y-53207011D01*
X119885287Y-53202395D01*
X119873500Y-53198565D01*
X119873498Y-53198565D01*
X119864066Y-53195500D01*
X111775837Y-53195500D01*
X111707716Y-53175498D01*
X111661642Y-53122750D01*
X111592905Y-52975341D01*
X111592902Y-52975336D01*
X111590579Y-52970354D01*
X111464674Y-52790543D01*
X111309457Y-52635326D01*
X111304949Y-52632169D01*
X111304946Y-52632167D01*
X111134155Y-52512578D01*
X111134153Y-52512577D01*
X111129646Y-52509421D01*
X111124664Y-52507098D01*
X111124659Y-52507095D01*
X111023884Y-52460104D01*
X110930703Y-52416653D01*
X110718674Y-52359839D01*
X110500000Y-52340708D01*
X110281326Y-52359839D01*
X110069297Y-52416653D01*
X109976116Y-52460104D01*
X109875341Y-52507095D01*
X109875336Y-52507098D01*
X109870354Y-52509421D01*
X109865847Y-52512577D01*
X109865845Y-52512578D01*
X109695054Y-52632167D01*
X109695051Y-52632169D01*
X109690543Y-52635326D01*
X109535326Y-52790543D01*
X109409421Y-52970354D01*
X109407098Y-52975336D01*
X109407095Y-52975341D01*
X109360104Y-53076116D01*
X109316653Y-53169297D01*
X109259839Y-53381326D01*
X109240708Y-53600000D01*
X100254500Y-53600000D01*
X100254500Y-50380500D01*
X100274502Y-50312379D01*
X100328158Y-50265886D01*
X100380500Y-50254500D01*
X179619500Y-50254500D01*
X179687621Y-50274502D01*
G37*
%TD.AperFunction*%
%TD*%
M02*
